<?xml version="1.0" encoding="UTF-8" standalone="no"?><svg xmlns="http://www.w3.org/2000/svg" xmlns:xlink="http://www.w3.org/1999/xlink" contentStyleType="text/css" height="408px" preserveAspectRatio="none" style="width:470px;height:408px;background:#FFFFFF;" version="1.1" viewBox="0 0 470 408" width="470px" zoomAndPan="magnify"><defs/><g><!--class CpuIdTree--><g id="elem_CpuIdTree"><rect codeLine="2" fill="#F1F1F1" height="113.1875" id="CpuIdTree" rx="2.5" ry="2.5" style="stroke:#181818;stroke-width:0.5;" width="456" x="7" y="7"/><ellipse cx="194.75" cy="23" fill="#ADD1B2" rx="11" ry="11" style="stroke:#181818;stroke-width:1.0;"/><path d="M197.7188,28.6406 Q197.1406,28.9375 196.5,29.0781 Q195.8594,29.2344 195.1563,29.2344 Q192.6563,29.2344 191.3281,27.5938 Q190.0156,25.9375 190.0156,22.8125 Q190.0156,19.6875 191.3281,18.0313 Q192.6563,16.375 195.1563,16.375 Q195.8594,16.375 196.5,16.5313 Q197.1563,16.6875 197.7188,16.9844 L197.7188,19.7031 Q197.0938,19.125 196.5,18.8594 Q195.9063,18.5781 195.2813,18.5781 Q193.9375,18.5781 193.25,19.6563 Q192.5625,20.7188 192.5625,22.8125 Q192.5625,24.9063 193.25,25.9844 Q193.9375,27.0469 195.2813,27.0469 Q195.9063,27.0469 196.5,26.7813 Q197.0938,26.5 197.7188,25.9219 L197.7188,28.6406 Z " fill="#000000"/><text fill="#000000" font-family="sans-serif" font-size="14" lengthAdjust="spacing" textLength="72" x="215.25" y="27.8467">CpuIdTree</text><line style="stroke:#181818;stroke-width:0.5;" x1="8" x2="462" y1="39" y2="39"/><ellipse cx="18" cy="52.6484" fill="none" rx="3" ry="3" style="stroke:#038048;stroke-width:1.0;"/><text fill="#000000" font-family="sans-serif" font-size="14" lengthAdjust="spacing" textLength="93" x="27" y="55.9951">IsEmpty: bool</text><line style="stroke:#181818;stroke-width:0.5;" x1="8" x2="462" y1="63.2969" y2="63.2969"/><ellipse cx="18" cy="76.9453" fill="#84BE84" rx="3" ry="3" style="stroke:#038048;stroke-width:1.0;"/><text fill="#000000" font-family="sans-serif" font-size="14" lengthAdjust="spacing" textLength="430" x="27" y="80.292">SetProcessor(cpu: unsigned int, tree: CpuIdProcessor&amp;): bool</text><ellipse cx="18" cy="93.2422" fill="#84BE84" rx="3" ry="3" style="stroke:#038048;stroke-width:1.0;"/><text fill="#000000" font-family="sans-serif" font-size="14" lengthAdjust="spacing" textLength="352" x="27" y="96.5889">GetProcessor(cpu: unsigned int): CpuIdProcessor*</text><ellipse cx="18" cy="109.5391" fill="#84BE84" rx="3" ry="3" style="stroke:#038048;stroke-width:1.0;"/><text fill="#000000" font-family="sans-serif" font-size="14" lengthAdjust="spacing" textLength="88" x="27" y="112.8857">Size(): size_t</text></g><!--class CpuIdProcessor--><g id="elem_CpuIdProcessor"><rect codeLine="9" fill="#F1F1F1" height="113.1875" id="CpuIdProcessor" rx="2.5" ry="2.5" style="stroke:#181818;stroke-width:0.5;" width="389" x="40.5" y="180"/><ellipse cx="175.75" cy="196" fill="#ADD1B2" rx="11" ry="11" style="stroke:#181818;stroke-width:1.0;"/><path d="M178.7188,201.6406 Q178.1406,201.9375 177.5,202.0781 Q176.8594,202.2344 176.1563,202.2344 Q173.6563,202.2344 172.3281,200.5938 Q171.0156,198.9375 171.0156,195.8125 Q171.0156,192.6875 172.3281,191.0313 Q173.6563,189.375 176.1563,189.375 Q176.8594,189.375 177.5,189.5313 Q178.1563,189.6875 178.7188,189.9844 L178.7188,192.7031 Q178.0938,192.125 177.5,191.8594 Q176.9063,191.5781 176.2813,191.5781 Q174.9375,191.5781 174.25,192.6563 Q173.5625,193.7188 173.5625,195.8125 Q173.5625,197.9063 174.25,198.9844 Q174.9375,200.0469 176.2813,200.0469 Q176.9063,200.0469 177.5,199.7813 Q178.0938,199.5 178.7188,198.9219 L178.7188,201.6406 Z " fill="#000000"/><text fill="#000000" font-family="sans-serif" font-size="14" lengthAdjust="spacing" textLength="110" x="196.25" y="200.8467">CpuIdProcessor</text><line style="stroke:#181818;stroke-width:0.5;" x1="41.5" x2="428.5" y1="212" y2="212"/><ellipse cx="51.5" cy="225.6484" fill="none" rx="3" ry="3" style="stroke:#038048;stroke-width:1.0;"/><text fill="#000000" font-family="sans-serif" font-size="14" lengthAdjust="spacing" textLength="93" x="60.5" y="228.9951">IsEmpty: bool</text><line style="stroke:#181818;stroke-width:0.5;" x1="41.5" x2="428.5" y1="236.2969" y2="236.2969"/><ellipse cx="51.5" cy="249.9453" fill="#84BE84" rx="3" ry="3" style="stroke:#038048;stroke-width:1.0;"/><text fill="#000000" font-family="sans-serif" font-size="14" lengthAdjust="spacing" textLength="272" x="60.5" y="253.292">AddLeaf(cpureg: CpuIdRegister&amp;): bool</text><ellipse cx="51.5" cy="266.2422" fill="#84BE84" rx="3" ry="3" style="stroke:#038048;stroke-width:1.0;"/><text fill="#000000" font-family="sans-serif" font-size="14" lengthAdjust="spacing" textLength="363" x="60.5" y="269.5889">GetLeaf(eax: uint32_t, ecx: uint32_t): CpuIdRegister*</text><ellipse cx="51.5" cy="282.5391" fill="#84BE84" rx="3" ry="3" style="stroke:#038048;stroke-width:1.0;"/><text fill="#000000" font-family="sans-serif" font-size="14" lengthAdjust="spacing" textLength="88" x="60.5" y="285.8857">Size(): size_t</text></g><!--class CpuIdRegister--><g id="elem_CpuIdRegister"><rect codeLine="16" fill="#F1F1F1" height="48" id="CpuIdRegister" rx="2.5" ry="2.5" style="stroke:#181818;stroke-width:0.5;" width="130" x="170" y="353"/><ellipse cx="185" cy="369" fill="#ADD1B2" rx="11" ry="11" style="stroke:#181818;stroke-width:1.0;"/><path d="M187.9688,374.6406 Q187.3906,374.9375 186.75,375.0781 Q186.1094,375.2344 185.4063,375.2344 Q182.9063,375.2344 181.5781,373.5938 Q180.2656,371.9375 180.2656,368.8125 Q180.2656,365.6875 181.5781,364.0313 Q182.9063,362.375 185.4063,362.375 Q186.1094,362.375 186.75,362.5313 Q187.4063,362.6875 187.9688,362.9844 L187.9688,365.7031 Q187.3438,365.125 186.75,364.8594 Q186.1563,364.5781 185.5313,364.5781 Q184.1875,364.5781 183.5,365.6563 Q182.8125,366.7188 182.8125,368.8125 Q182.8125,370.9063 183.5,371.9844 Q184.1875,373.0469 185.5313,373.0469 Q186.1563,373.0469 186.75,372.7813 Q187.3438,372.5 187.9688,371.9219 L187.9688,374.6406 Z " fill="#000000"/><text fill="#000000" font-family="sans-serif" font-size="14" lengthAdjust="spacing" textLength="98" x="199" y="373.8467">CpuIdRegister</text><line style="stroke:#181818;stroke-width:0.5;" x1="171" x2="299" y1="385" y2="385"/><line style="stroke:#181818;stroke-width:0.5;" x1="171" x2="299" y1="393" y2="393"/></g><!--reverse link CpuIdTree to CpuIdProcessor--><g id="link_CpuIdTree_CpuIdProcessor"><path codeLine="18" d="M235,133.38 C235,148.86 235,165.11 235,179.97 " fill="none" id="CpuIdTree-backto-CpuIdProcessor" style="stroke:#181818;stroke-width:1.0;"/><polygon fill="#181818" points="235,120.02,231,126.02,235,132.02,239,126.02,235,120.02" style="stroke:#181818;stroke-width:1.0;"/><text fill="#000000" font-family="sans-serif" font-size="13" lengthAdjust="spacing" textLength="8" x="226.4875" y="140.286">1</text><text fill="#000000" font-family="sans-serif" font-size="13" lengthAdjust="spacing" textLength="7" x="227.5516" y="168.8295">*</text></g><!--reverse link CpuIdProcessor to CpuIdRegister--><g id="link_CpuIdProcessor_CpuIdRegister"><path codeLine="19" d="M235,306.43 C235,323.24 235,340.07 235,352.96 " fill="none" id="CpuIdProcessor-backto-CpuIdRegister" style="stroke:#181818;stroke-width:1.0;"/><polygon fill="#181818" points="235,293.04,231,299.04,235,305.04,239,299.04,235,293.04" style="stroke:#181818;stroke-width:1.0;"/><text fill="#000000" font-family="sans-serif" font-size="13" lengthAdjust="spacing" textLength="8" x="226.4875" y="313.3085">1</text><text fill="#000000" font-family="sans-serif" font-size="13" lengthAdjust="spacing" textLength="7" x="227.1031" y="341.9618">*</text></g><!--SRC=[dL2z2i8m4Dxp54S6QQiTrAsRY4Z1GTIzrEGiWTgK90Mr-Ev6-oSfE9WbvExx3SjJhM5TLZ4_AKIe2TWpFQBPAybGQwayLbOHL8KMMO4SH65cO2msQcWzRk97S9OoRnIsFnLybnoqlkA1dbrgUoUccSLwSotDlHL_4iA6p3s_2xxYV8VfvUseC6jT3fW9RN2Sy0F5z6R3sL3BHMAh8Vjw-ex2dp4xEjHW5yDlqpc58EGXq80wXOZJRmpjH5y0]--></g></svg>