<?xml version="1.0" encoding="UTF-8" standalone="no"?><svg xmlns="http://www.w3.org/2000/svg" xmlns:xlink="http://www.w3.org/1999/xlink" contentStyleType="text/css" height="458px" preserveAspectRatio="none" style="width:1067px;height:458px;background:#FFFFFF;" version="1.1" viewBox="0 0 1067 458" width="1067px" zoomAndPan="magnify"><defs/><g><!--MD5=[c59d9b00b9061e3c15905a76470ded7a]
class CpuIdRegister--><g id="elem_CpuIdRegister"><rect codeLine="2" fill="#F1F1F1" height="129.4844" id="CpuIdRegister" rx="2.5" ry="2.5" style="stroke:#181818;stroke-width:0.5;" width="130" x="698" y="7"/><ellipse cx="713" cy="23" fill="#ADD1B2" rx="11" ry="11" style="stroke:#181818;stroke-width:1.0;"/><path d="M715.9688,28.6406 Q715.3906,28.9375 714.75,29.0781 Q714.1094,29.2344 713.4063,29.2344 Q710.9063,29.2344 709.5781,27.5938 Q708.2656,25.9375 708.2656,22.8125 Q708.2656,19.6875 709.5781,18.0313 Q710.9063,16.375 713.4063,16.375 Q714.1094,16.375 714.75,16.5313 Q715.4063,16.6875 715.9688,16.9844 L715.9688,19.7031 Q715.3438,19.125 714.75,18.8594 Q714.1563,18.5781 713.5313,18.5781 Q712.1875,18.5781 711.5,19.6563 Q710.8125,20.7188 710.8125,22.8125 Q710.8125,24.9063 711.5,25.9844 Q712.1875,27.0469 713.5313,27.0469 Q714.1563,27.0469 714.75,26.7813 Q715.3438,26.5 715.9688,25.9219 L715.9688,28.6406 Z " fill="#000000"/><text fill="#000000" font-family="sans-serif" font-size="14" lengthAdjust="spacing" textLength="98" x="727" y="27.8467">CpuIdRegister</text><line style="stroke:#181818;stroke-width:0.5;" x1="699" x2="827" y1="39" y2="39"/><line style="stroke:#181818;stroke-width:0.5;" x1="699" x2="827" y1="47" y2="47"/><ellipse cx="709" cy="60.6484" fill="#84BE84" rx="3" ry="3" style="stroke:#038048;stroke-width:1.0;"/><text fill="#000000" font-family="sans-serif" font-size="14" lengthAdjust="spacing" textLength="92" x="718" y="63.9951">IsValid(): bool</text><ellipse cx="709" cy="76.9453" fill="#84BE84" rx="3" ry="3" style="stroke:#038048;stroke-width:1.0;"/><text fill="#000000" font-family="sans-serif" font-size="14" lengthAdjust="spacing" textLength="90" x="718" y="80.292">Eax(): int32_t</text><ellipse cx="709" cy="93.2422" fill="#84BE84" rx="3" ry="3" style="stroke:#038048;stroke-width:1.0;"/><text fill="#000000" font-family="sans-serif" font-size="14" lengthAdjust="spacing" textLength="91" x="718" y="96.5889">Ebx(): int32_t</text><ellipse cx="709" cy="109.5391" fill="#84BE84" rx="3" ry="3" style="stroke:#038048;stroke-width:1.0;"/><text fill="#000000" font-family="sans-serif" font-size="14" lengthAdjust="spacing" textLength="90" x="718" y="112.8857">Ecx(): int32_t</text><ellipse cx="709" cy="125.8359" fill="#84BE84" rx="3" ry="3" style="stroke:#038048;stroke-width:1.0;"/><text fill="#000000" font-family="sans-serif" font-size="14" lengthAdjust="spacing" textLength="91" x="718" y="129.1826">Edx(): int32_t</text></g><!--MD5=[6d45f72aca59e527318766c0d31b3710]
class ICpuId--><g id="elem_ICpuId"><rect codeLine="10" fill="#F1F1F1" height="96.8906" id="ICpuId" rx="2.5" ry="2.5" style="stroke:#181818;stroke-width:0.5;" width="281" x="318.5" y="23"/><ellipse cx="432.25" cy="39" fill="#A9DCDF" rx="11" ry="11" style="stroke:#181818;stroke-width:1.0;"/><path d="M432.3594,34.3438 L431.2031,39.4219 L433.5313,39.4219 L432.3594,34.3438 Z M430.875,32.1094 L433.8594,32.1094 L437.2188,44.5 L434.7656,44.5 L434,41.4375 L430.7188,41.4375 L429.9688,44.5 L427.5313,44.5 L430.875,32.1094 Z " fill="#000000"/><text fill="#000000" font-family="sans-serif" font-size="14" font-style="italic" lengthAdjust="spacing" textLength="45" x="452.75" y="43.8467">ICpuId</text><line style="stroke:#181818;stroke-width:0.5;" x1="319.5" x2="598.5" y1="55" y2="55"/><line style="stroke:#181818;stroke-width:0.5;" x1="319.5" x2="598.5" y1="63" y2="63"/><ellipse cx="329.5" cy="84.7969" fill="#84BE84" rx="3" ry="3" style="stroke:#038048;stroke-width:1.0;"/><text fill="#000000" font-family="sans-serif" font-size="14" font-style="italic" lengthAdjust="spacing" textLength="255" x="338.5" y="79.9951">GetCpuId(eax: int32_t, ecx: int32_t) :</text><text fill="#000000" font-family="sans-serif" font-size="14" font-style="italic" lengthAdjust="spacing" textLength="140" x="354.5" y="96.292">const CpuIdRegister</text><ellipse cx="329.5" cy="109.2422" fill="#84BE84" rx="3" ry="3" style="stroke:#038048;stroke-width:1.0;"/><text fill="#000000" font-family="sans-serif" font-size="14" lengthAdjust="spacing" textLength="132" x="338.5" y="112.5889">~ICpuId() = default</text></g><!--MD5=[b5dd706e67916e35b0890b946461bd1a]
class CpuIdNative--><g id="elem_CpuIdNative"><rect codeLine="17" fill="#F1F1F1" height="96.8906" id="CpuIdNative" rx="2.5" ry="2.5" style="stroke:#181818;stroke-width:0.5;" width="278" x="7" y="205"/><ellipse cx="100.75" cy="221" fill="#ADD1B2" rx="11" ry="11" style="stroke:#181818;stroke-width:1.0;"/><path d="M103.7188,226.6406 Q103.1406,226.9375 102.5,227.0781 Q101.8594,227.2344 101.1563,227.2344 Q98.6563,227.2344 97.3281,225.5938 Q96.0156,223.9375 96.0156,220.8125 Q96.0156,217.6875 97.3281,216.0313 Q98.6563,214.375 101.1563,214.375 Q101.8594,214.375 102.5,214.5313 Q103.1563,214.6875 103.7188,214.9844 L103.7188,217.7031 Q103.0938,217.125 102.5,216.8594 Q101.9063,216.5781 101.2813,216.5781 Q99.9375,216.5781 99.25,217.6563 Q98.5625,218.7188 98.5625,220.8125 Q98.5625,222.9063 99.25,223.9844 Q99.9375,225.0469 101.2813,225.0469 Q101.9063,225.0469 102.5,224.7813 Q103.0938,224.5 103.7188,223.9219 L103.7188,226.6406 Z " fill="#000000"/><text fill="#000000" font-family="sans-serif" font-size="14" lengthAdjust="spacing" textLength="82" x="121.25" y="225.8467">CpuIdNative</text><line style="stroke:#181818;stroke-width:0.5;" x1="8" x2="284" y1="237" y2="237"/><line style="stroke:#181818;stroke-width:0.5;" x1="8" x2="284" y1="245" y2="245"/><ellipse cx="18" cy="258.6484" fill="#84BE84" rx="3" ry="3" style="stroke:#038048;stroke-width:1.0;"/><text fill="#000000" font-family="sans-serif" font-size="14" lengthAdjust="spacing" textLength="175" x="27" y="261.9951">CpuIdNative(cpunum: int)</text><ellipse cx="18" cy="283.0938" fill="#84BE84" rx="3" ry="3" style="stroke:#038048;stroke-width:1.0;"/><text fill="#000000" font-family="sans-serif" font-size="14" lengthAdjust="spacing" textLength="252" x="27" y="278.292">GetCpuId(eax: int32_t, ecx: int32_t) :</text><text fill="#000000" font-family="sans-serif" font-size="14" lengthAdjust="spacing" textLength="141" x="43" y="294.5889">const CpuIdRegister</text></g><!--MD5=[8d724944a39ca9d0c62c56c67cfe04ce]
class CpuIdDefault--><g id="elem_CpuIdDefault"><rect codeLine="22" fill="#F1F1F1" height="96.8906" id="CpuIdDefault" rx="2.5" ry="2.5" style="stroke:#181818;stroke-width:0.5;" width="278" x="320" y="205"/><ellipse cx="410.25" cy="221" fill="#ADD1B2" rx="11" ry="11" style="stroke:#181818;stroke-width:1.0;"/><path d="M413.2188,226.6406 Q412.6406,226.9375 412,227.0781 Q411.3594,227.2344 410.6563,227.2344 Q408.1563,227.2344 406.8281,225.5938 Q405.5156,223.9375 405.5156,220.8125 Q405.5156,217.6875 406.8281,216.0313 Q408.1563,214.375 410.6563,214.375 Q411.3594,214.375 412,214.5313 Q412.6563,214.6875 413.2188,214.9844 L413.2188,217.7031 Q412.5938,217.125 412,216.8594 Q411.4063,216.5781 410.7813,216.5781 Q409.4375,216.5781 408.75,217.6563 Q408.0625,218.7188 408.0625,220.8125 Q408.0625,222.9063 408.75,223.9844 Q409.4375,225.0469 410.7813,225.0469 Q411.4063,225.0469 412,224.7813 Q412.5938,224.5 413.2188,223.9219 L413.2188,226.6406 Z " fill="#000000"/><text fill="#000000" font-family="sans-serif" font-size="14" lengthAdjust="spacing" textLength="89" x="430.75" y="225.8467">CpuIdDefault</text><line style="stroke:#181818;stroke-width:0.5;" x1="321" x2="597" y1="237" y2="237"/><line style="stroke:#181818;stroke-width:0.5;" x1="321" x2="597" y1="245" y2="245"/><ellipse cx="331" cy="258.6484" fill="#84BE84" rx="3" ry="3" style="stroke:#038048;stroke-width:1.0;"/><text fill="#000000" font-family="sans-serif" font-size="14" lengthAdjust="spacing" textLength="182" x="340" y="261.9951">CpuIdDefault(cpunum: int)</text><ellipse cx="331" cy="283.0938" fill="#84BE84" rx="3" ry="3" style="stroke:#038048;stroke-width:1.0;"/><text fill="#000000" font-family="sans-serif" font-size="14" lengthAdjust="spacing" textLength="252" x="340" y="278.292">GetCpuId(eax: int32_t, ecx: int32_t) :</text><text fill="#000000" font-family="sans-serif" font-size="14" lengthAdjust="spacing" textLength="141" x="356" y="294.5889">const CpuIdRegister</text></g><!--MD5=[24a5d88e587590cb7da1af8b22c5b20b]
class DeviceAccessMethod--><g id="elem_DeviceAccessMethod"><rect codeLine="27" fill="#F1F1F1" height="80.5938" id="DeviceAccessMethod" rx="2.5" ry="2.5" style="stroke:#181818;stroke-width:0.5;" width="182" x="756" y="371"/><ellipse cx="771" cy="387" fill="#EB937F" rx="11" ry="11" style="stroke:#181818;stroke-width:1.0;"/><path d="M775.1094,393 L767.3906,393 L767.3906,380.6094 L775.1094,380.6094 L775.1094,382.7656 L769.8438,382.7656 L769.8438,385.4375 L774.6094,385.4375 L774.6094,387.5938 L769.8438,387.5938 L769.8438,390.8438 L775.1094,390.8438 L775.1094,393 Z " fill="#000000"/><text fill="#000000" font-family="sans-serif" font-size="14" lengthAdjust="spacing" textLength="150" x="785" y="391.8467">DeviceAccessMethod</text><line style="stroke:#181818;stroke-width:0.5;" x1="757" x2="937" y1="403" y2="403"/><ellipse cx="767" cy="416.6484" fill="none" rx="3" ry="3" style="stroke:#038048;stroke-width:1.0;"/><text fill="#000000" font-family="sans-serif" font-size="14" lengthAdjust="spacing" textLength="34" x="776" y="419.9951">seek</text><ellipse cx="767" cy="432.9453" fill="none" rx="3" ry="3" style="stroke:#038048;stroke-width:1.0;"/><text fill="#000000" font-family="sans-serif" font-size="14" lengthAdjust="spacing" textLength="40" x="776" y="436.292">pread</text><line style="stroke:#181818;stroke-width:0.5;" x1="757" x2="937" y1="443.5938" y2="443.5938"/></g><!--MD5=[0e9351cf2f52766a294bc9b6dfcb9732]
class CpuIdDevice--><g id="elem_CpuIdDevice"><rect codeLine="32" fill="#F1F1F1" height="113.1875" id="CpuIdDevice" rx="2.5" ry="2.5" style="stroke:#181818;stroke-width:0.5;" width="427" x="633.5" y="197"/><ellipse cx="799.25" cy="213" fill="#ADD1B2" rx="11" ry="11" style="stroke:#181818;stroke-width:1.0;"/><path d="M802.2188,218.6406 Q801.6406,218.9375 801,219.0781 Q800.3594,219.2344 799.6563,219.2344 Q797.1563,219.2344 795.8281,217.5938 Q794.5156,215.9375 794.5156,212.8125 Q794.5156,209.6875 795.8281,208.0313 Q797.1563,206.375 799.6563,206.375 Q800.3594,206.375 801,206.5313 Q801.6563,206.6875 802.2188,206.9844 L802.2188,209.7031 Q801.5938,209.125 801,208.8594 Q800.4063,208.5781 799.7813,208.5781 Q798.4375,208.5781 797.75,209.6563 Q797.0625,210.7188 797.0625,212.8125 Q797.0625,214.9063 797.75,215.9844 Q798.4375,217.0469 799.7813,217.0469 Q800.4063,217.0469 801,216.7813 Q801.5938,216.5 802.2188,215.9219 L802.2188,218.6406 Z " fill="#000000"/><text fill="#000000" font-family="sans-serif" font-size="14" lengthAdjust="spacing" textLength="87" x="819.75" y="217.8467">CpuIdDevice</text><line style="stroke:#181818;stroke-width:0.5;" x1="634.5" x2="1059.5" y1="229" y2="229"/><line style="stroke:#181818;stroke-width:0.5;" x1="634.5" x2="1059.5" y1="237" y2="237"/><ellipse cx="644.5" cy="250.6484" fill="#84BE84" rx="3" ry="3" style="stroke:#038048;stroke-width:1.0;"/><text fill="#000000" font-family="sans-serif" font-size="14" lengthAdjust="spacing" textLength="180" x="653.5" y="253.9951">CpuIdDevice(cpunum: int)</text><ellipse cx="644.5" cy="266.9453" fill="#84BE84" rx="3" ry="3" style="stroke:#038048;stroke-width:1.0;"/><text fill="#000000" font-family="sans-serif" font-size="14" lengthAdjust="spacing" textLength="401" x="653.5" y="270.292">CpuIdDevice(cpunum: int, method: DeviceAccessMethod)</text><ellipse cx="644.5" cy="291.3906" fill="#84BE84" rx="3" ry="3" style="stroke:#038048;stroke-width:1.0;"/><text fill="#000000" font-family="sans-serif" font-size="14" lengthAdjust="spacing" textLength="252" x="653.5" y="286.5889">GetCpuId(eax: int32_t, ecx: int32_t) :</text><text fill="#000000" font-family="sans-serif" font-size="14" lengthAdjust="spacing" textLength="141" x="669.5" y="302.8857">const CpuIdRegister</text></g><!--MD5=[3d6ca59e614646aa72fec8f900f5b489]
link ICpuId to CpuIdRegister--><g id="link_ICpuId_CpuIdRegister"><path codeLine="15" d="M599.88,71.5 C634.05,71.5 668.97,71.5 697.69,71.5 " fill="none" id="ICpuId-CpuIdRegister" style="stroke:#181818;stroke-width:1.0;"/><text fill="#000000" font-family="sans-serif" font-size="13" lengthAdjust="spacing" textLength="62" x="617.75" y="64.5669">«returns»</text></g><!--MD5=[d901b65af8583746ed41565908389094]
link CpuIdDevice to DeviceAccessMethod--><g id="link_CpuIdDevice_DeviceAccessMethod"><path codeLine="38" d="M847,310.38 C847,330.31 847,352.35 847,370.66 " fill="none" id="CpuIdDevice-DeviceAccessMethod" style="stroke:#181818;stroke-width:1.0;"/></g><!--MD5=[d366c32c56e326ff3e8e5f76316041c9]
reverse link ICpuId to CpuIdNative--><g id="link_ICpuId_CpuIdNative"><path codeLine="40" d="M358.81,130.12 C316.88,154.23 268.72,181.92 228.84,204.86 " fill="none" id="ICpuId-backto-CpuIdNative" style="stroke:#181818;stroke-width:1.0;stroke-dasharray:7.0,7.0;"/><polygon fill="none" points="355.53,123.93,376.35,120.03,362.51,136.07,355.53,123.93" style="stroke:#181818;stroke-width:1.0;"/></g><!--MD5=[6af41802672dd11a068d0edd4473b76e]
reverse link ICpuId to CpuIdDefault--><g id="link_ICpuId_CpuIdDefault"><path codeLine="41" d="M459,140.5 C459,161.93 459,185.13 459,204.83 " fill="none" id="ICpuId-backto-CpuIdDefault" style="stroke:#181818;stroke-width:1.0;stroke-dasharray:7.0,7.0;"/><polygon fill="none" points="452,140.26,459,120.26,466,140.26,452,140.26" style="stroke:#181818;stroke-width:1.0;"/></g><!--MD5=[6660793f9bbc07c35e6867a5a3d53e91]
reverse link ICpuId to CpuIdDevice--><g id="link_ICpuId_CpuIdDevice"><path codeLine="42" d="M579.75,128.52 C626.65,150.28 680.26,175.15 727.09,196.87 " fill="none" id="ICpuId-backto-CpuIdDevice" style="stroke:#181818;stroke-width:1.0;stroke-dasharray:7.0,7.0;"/><polygon fill="none" points="576.65,134.8,561.45,120.03,582.54,122.1,576.65,134.8" style="stroke:#181818;stroke-width:1.0;"/></g><!--MD5=[2fdab9213da0c50cd261ee57e78d88cd]
@startuml ICpuId

class CpuIdRegister {
    +IsValid(): bool
    +Eax(): int32_t
    +Ebx(): int32_t
    +Ecx(): int32_t
    +Edx(): int32_t
}

abstract class ICpuId {
    +{abstract} GetCpuId(eax: int32_t, ecx: int32_t) :\n    const CpuIdRegister
    +~ICpuId() = default
}

ICpuId -r- CpuIdRegister : <<returns>>

class CpuIdNative {
    +CpuIdNative(cpunum: int)
    +GetCpuId(eax: int32_t, ecx: int32_t) :\n    const CpuIdRegister
}

class CpuIdDefault {
    +CpuIdDefault(cpunum: int)
    +GetCpuId(eax: int32_t, ecx: int32_t) :\n    const CpuIdRegister
}

enum DeviceAccessMethod {
    +seek
    +pread
}

class CpuIdDevice {
    +CpuIdDevice(cpunum: int)
    +CpuIdDevice(cpunum: int, method: DeviceAccessMethod)
    +GetCpuId(eax: int32_t, ecx: int32_t) :\n    const CpuIdRegister
}

CpuIdDevice -d- DeviceAccessMethod

ICpuId <|.d. CpuIdNative
ICpuId <|.d. CpuIdDefault
ICpuId <|.d. CpuIdDevice

@enduml

PlantUML version 1.2022.7(Mon Aug 22 19:01:30 CEST 2022)
(GPL source distribution)
Java Runtime: OpenJDK Runtime Environment
JVM: OpenJDK 64-Bit Server VM
Default Encoding: UTF-8
Language: en
Country: US
--></g></svg>