<?xml version="1.0" encoding="UTF-8" standalone="no"?><svg xmlns="http://www.w3.org/2000/svg" xmlns:xlink="http://www.w3.org/1999/xlink" contentStyleType="text/css" height="516px" preserveAspectRatio="none" style="width:591px;height:516px;background:#FFFFFF;" version="1.1" viewBox="0 0 591 516" width="591px" zoomAndPan="magnify"><defs/><g><g id="cluster_##2"><rect fill="none" height="188" rx="2.5" ry="2.5" style="stroke:#181818;stroke-width:1.0;" width="216" x="7" y="99"/></g><!--MD5=[5adef1435b81b94ea94b122c0546527d]
class ICpuIdOutputWriter--><g id="elem_ICpuIdOutputWriter"><rect codeLine="3" fill="#F1F1F1" height="48" id="ICpuIdOutputWriter" rx="2.5" ry="2.5" style="stroke:#181818;stroke-width:0.5;" width="166" x="39" y="115"/><ellipse cx="54" cy="131" fill="#A9DCDF" rx="11" ry="11" style="stroke:#181818;stroke-width:1.0;"/><path d="M54.1094,126.3438 L52.9531,131.4219 L55.2813,131.4219 L54.1094,126.3438 Z M52.625,124.1094 L55.6094,124.1094 L58.9688,136.5 L56.5156,136.5 L55.75,133.4375 L52.4688,133.4375 L51.7188,136.5 L49.2813,136.5 L52.625,124.1094 Z " fill="#000000"/><text fill="#000000" font-family="sans-serif" font-size="14" font-style="italic" lengthAdjust="spacing" textLength="134" x="68" y="135.8467">ICpuIdOutputWriter</text><line style="stroke:#181818;stroke-width:0.5;" x1="40" x2="204" y1="147" y2="147"/><line style="stroke:#181818;stroke-width:0.5;" x1="40" x2="204" y1="155" y2="155"/></g><!--MD5=[7080965213b159973451dadab8d660ca]
class CpuIdXmlOutputWriter--><g id="elem_CpuIdXmlOutputWriter"><rect codeLine="4" fill="#F1F1F1" height="48" id="CpuIdXmlOutputWriter" rx="2.5" ry="2.5" style="stroke:#181818;stroke-width:0.5;" width="185" x="22.5" y="223"/><ellipse cx="37.5" cy="239" fill="#ADD1B2" rx="11" ry="11" style="stroke:#181818;stroke-width:1.0;"/><path d="M40.4688,244.6406 Q39.8906,244.9375 39.25,245.0781 Q38.6094,245.2344 37.9063,245.2344 Q35.4063,245.2344 34.0781,243.5938 Q32.7656,241.9375 32.7656,238.8125 Q32.7656,235.6875 34.0781,234.0313 Q35.4063,232.375 37.9063,232.375 Q38.6094,232.375 39.25,232.5313 Q39.9063,232.6875 40.4688,232.9844 L40.4688,235.7031 Q39.8438,235.125 39.25,234.8594 Q38.6563,234.5781 38.0313,234.5781 Q36.6875,234.5781 36,235.6563 Q35.3125,236.7188 35.3125,238.8125 Q35.3125,240.9063 36,241.9844 Q36.6875,243.0469 38.0313,243.0469 Q38.6563,243.0469 39.25,242.7813 Q39.8438,242.5 40.4688,241.9219 L40.4688,244.6406 Z " fill="#000000"/><text fill="#000000" font-family="sans-serif" font-size="14" lengthAdjust="spacing" textLength="153" x="51.5" y="243.8467">CpuIdXmlOutputWriter</text><line style="stroke:#181818;stroke-width:0.5;" x1="23.5" x2="206.5" y1="255" y2="255"/><line style="stroke:#181818;stroke-width:0.5;" x1="23.5" x2="206.5" y1="263" y2="263"/></g><!--MD5=[4520fda4e10d4d791ce48fe025810cd4]
class main--><g id="elem_main"><rect codeLine="9" fill="#F1F1F1" height="48" id="main" rx="2.5" ry="2.5" style="stroke:#181818;stroke-width:0.5;" width="65" x="271.5" y="7"/><ellipse cx="286.5" cy="23" fill="#ADD1B2" rx="11" ry="11" style="stroke:#181818;stroke-width:1.0;"/><path d="M289.4688,28.6406 Q288.8906,28.9375 288.25,29.0781 Q287.6094,29.2344 286.9063,29.2344 Q284.4063,29.2344 283.0781,27.5938 Q281.7656,25.9375 281.7656,22.8125 Q281.7656,19.6875 283.0781,18.0313 Q284.4063,16.375 286.9063,16.375 Q287.6094,16.375 288.25,16.5313 Q288.9063,16.6875 289.4688,16.9844 L289.4688,19.7031 Q288.8438,19.125 288.25,18.8594 Q287.6563,18.5781 287.0313,18.5781 Q285.6875,18.5781 285,19.6563 Q284.3125,20.7188 284.3125,22.8125 Q284.3125,24.9063 285,25.9844 Q285.6875,27.0469 287.0313,27.0469 Q287.6563,27.0469 288.25,26.7813 Q288.8438,26.5 289.4688,25.9219 L289.4688,28.6406 Z " fill="#000000"/><text fill="#000000" font-family="sans-serif" font-size="14" lengthAdjust="spacing" textLength="33" x="300.5" y="27.8467">main</text><line style="stroke:#181818;stroke-width:0.5;" x1="272.5" x2="335.5" y1="39" y2="39"/><line style="stroke:#181818;stroke-width:0.5;" x1="272.5" x2="335.5" y1="47" y2="47"/></g><!--MD5=[ea5fb63c922d1575881ab4d9a660bd14]
class CpuIdOptions--><g id="elem_CpuIdOptions"><rect codeLine="11" fill="#F1F1F1" height="48" id="CpuIdOptions" rx="2.5" ry="2.5" style="stroke:#181818;stroke-width:0.5;" width="126" x="110" y="7"/><ellipse cx="125" cy="23" fill="#ADD1B2" rx="11" ry="11" style="stroke:#181818;stroke-width:1.0;"/><path d="M127.9688,28.6406 Q127.3906,28.9375 126.75,29.0781 Q126.1094,29.2344 125.4063,29.2344 Q122.9063,29.2344 121.5781,27.5938 Q120.2656,25.9375 120.2656,22.8125 Q120.2656,19.6875 121.5781,18.0313 Q122.9063,16.375 125.4063,16.375 Q126.1094,16.375 126.75,16.5313 Q127.4063,16.6875 127.9688,16.9844 L127.9688,19.7031 Q127.3438,19.125 126.75,18.8594 Q126.1563,18.5781 125.5313,18.5781 Q124.1875,18.5781 123.5,19.6563 Q122.8125,20.7188 122.8125,22.8125 Q122.8125,24.9063 123.5,25.9844 Q124.1875,27.0469 125.5313,27.0469 Q126.1563,27.0469 126.75,26.7813 Q127.3438,26.5 127.9688,25.9219 L127.9688,28.6406 Z " fill="#000000"/><text fill="#000000" font-family="sans-serif" font-size="14" lengthAdjust="spacing" textLength="94" x="139" y="27.8467">CpuIdOptions</text><line style="stroke:#181818;stroke-width:0.5;" x1="111" x2="235" y1="39" y2="39"/><line style="stroke:#181818;stroke-width:0.5;" x1="111" x2="235" y1="47" y2="47"/></g><!--MD5=[15faab5924118989e3daca4f4203be56]
class ICpuIdFactory--><g id="elem_ICpuIdFactory"><rect codeLine="13" fill="#F1F1F1" height="48" id="ICpuIdFactory" rx="2.5" ry="2.5" style="stroke:#181818;stroke-width:0.5;" width="128" x="240" y="115"/><ellipse cx="255" cy="131" fill="#A9DCDF" rx="11" ry="11" style="stroke:#181818;stroke-width:1.0;"/><path d="M255.1094,126.3438 L253.9531,131.4219 L256.2813,131.4219 L255.1094,126.3438 Z M253.625,124.1094 L256.6094,124.1094 L259.9688,136.5 L257.5156,136.5 L256.75,133.4375 L253.4688,133.4375 L252.7188,136.5 L250.2813,136.5 L253.625,124.1094 Z " fill="#000000"/><text fill="#000000" font-family="sans-serif" font-size="14" font-style="italic" lengthAdjust="spacing" textLength="96" x="269" y="135.8467">ICpuIdFactory</text><line style="stroke:#181818;stroke-width:0.5;" x1="241" x2="367" y1="147" y2="147"/><line style="stroke:#181818;stroke-width:0.5;" x1="241" x2="367" y1="155" y2="155"/></g><!--MD5=[c6fd592a8f36a2679f3f30c88ab8d549]
class CpuIdDumper--><g id="elem_CpuIdDumper"><rect codeLine="16" fill="#F1F1F1" height="48" id="CpuIdDumper" rx="2.5" ry="2.5" style="stroke:#181818;stroke-width:0.5;" width="128" x="243" y="223"/><ellipse cx="258" cy="239" fill="#ADD1B2" rx="11" ry="11" style="stroke:#181818;stroke-width:1.0;"/><path d="M260.9688,244.6406 Q260.3906,244.9375 259.75,245.0781 Q259.1094,245.2344 258.4063,245.2344 Q255.9063,245.2344 254.5781,243.5938 Q253.2656,241.9375 253.2656,238.8125 Q253.2656,235.6875 254.5781,234.0313 Q255.9063,232.375 258.4063,232.375 Q259.1094,232.375 259.75,232.5313 Q260.4063,232.6875 260.9688,232.9844 L260.9688,235.7031 Q260.3438,235.125 259.75,234.8594 Q259.1563,234.5781 258.5313,234.5781 Q257.1875,234.5781 256.5,235.6563 Q255.8125,236.7188 255.8125,238.8125 Q255.8125,240.9063 256.5,241.9844 Q257.1875,243.0469 258.5313,243.0469 Q259.1563,243.0469 259.75,242.7813 Q260.3438,242.5 260.9688,241.9219 L260.9688,244.6406 Z " fill="#000000"/><text fill="#000000" font-family="sans-serif" font-size="14" lengthAdjust="spacing" textLength="96" x="272" y="243.8467">CpuIdDumper</text><line style="stroke:#181818;stroke-width:0.5;" x1="244" x2="370" y1="255" y2="255"/><line style="stroke:#181818;stroke-width:0.5;" x1="244" x2="370" y1="263" y2="263"/></g><!--MD5=[d540a6016990966274d3cb8cfb35f2ef]
class CpuIdDefaultDump--><g id="elem_CpuIdDefaultDump"><rect codeLine="18" fill="#F1F1F1" height="48" id="CpuIdDefaultDump" rx="2.5" ry="2.5" style="stroke:#181818;stroke-width:0.5;" width="163" x="319.5" y="331"/><ellipse cx="334.5" cy="347" fill="#ADD1B2" rx="11" ry="11" style="stroke:#181818;stroke-width:1.0;"/><path d="M337.4688,352.6406 Q336.8906,352.9375 336.25,353.0781 Q335.6094,353.2344 334.9063,353.2344 Q332.4063,353.2344 331.0781,351.5938 Q329.7656,349.9375 329.7656,346.8125 Q329.7656,343.6875 331.0781,342.0313 Q332.4063,340.375 334.9063,340.375 Q335.6094,340.375 336.25,340.5313 Q336.9063,340.6875 337.4688,340.9844 L337.4688,343.7031 Q336.8438,343.125 336.25,342.8594 Q335.6563,342.5781 335.0313,342.5781 Q333.6875,342.5781 333,343.6563 Q332.3125,344.7188 332.3125,346.8125 Q332.3125,348.9063 333,349.9844 Q333.6875,351.0469 335.0313,351.0469 Q335.6563,351.0469 336.25,350.7813 Q336.8438,350.5 337.4688,349.9219 L337.4688,352.6406 Z " fill="#000000"/><text fill="#000000" font-family="sans-serif" font-size="14" lengthAdjust="spacing" textLength="131" x="348.5" y="351.8467">CpuIdDefaultDump</text><line style="stroke:#181818;stroke-width:0.5;" x1="320.5" x2="481.5" y1="363" y2="363"/><line style="stroke:#181818;stroke-width:0.5;" x1="320.5" x2="481.5" y1="371" y2="371"/></g><g id="elem_GMN12"><path d="M460,439 L460,509.5313 A0,0 0 0 0 460,509.5313 L584,509.5313 A0,0 0 0 0 584,509.5313 L584,449 L574,439 L490.21,439 L424.91,379.21 L482.21,439 L460,439 A0,0 0 0 0 460,439 " fill="#FEFFDD" style="stroke:#181818;stroke-width:0.5;"/><path d="M574,439 L574,449 L584,449 L574,439 " fill="#FEFFDD" style="stroke:#181818;stroke-width:0.5;"/><text fill="#000000" font-family="sans-serif" font-size="13" lengthAdjust="spacing" textLength="99" x="466" y="456.0669">Extra class that</text><text fill="#000000" font-family="sans-serif" font-size="13" lengthAdjust="spacing" textLength="103" x="466" y="471.1997">might specialize</text><text fill="#000000" font-family="sans-serif" font-size="13" lengthAdjust="spacing" textLength="68" x="466" y="486.3325">dumping a</text><text fill="#000000" font-family="sans-serif" font-size="13" lengthAdjust="spacing" textLength="84" x="466" y="501.4653">different CPU</text></g><!--MD5=[229ebc3fa115f9c3928420e2ba9b4ea8]
class CpuIdIntelDump--><g id="elem_CpuIdIntelDump"><rect codeLine="26" fill="#F1F1F1" height="48" id="CpuIdIntelDump" rx="2.5" ry="2.5" style="stroke:#181818;stroke-width:0.5;" width="143" x="141.5" y="331"/><ellipse cx="156.5" cy="347" fill="#ADD1B2" rx="11" ry="11" style="stroke:#181818;stroke-width:1.0;"/><path d="M159.4688,352.6406 Q158.8906,352.9375 158.25,353.0781 Q157.6094,353.2344 156.9063,353.2344 Q154.4063,353.2344 153.0781,351.5938 Q151.7656,349.9375 151.7656,346.8125 Q151.7656,343.6875 153.0781,342.0313 Q154.4063,340.375 156.9063,340.375 Q157.6094,340.375 158.25,340.5313 Q158.9063,340.6875 159.4688,340.9844 L159.4688,343.7031 Q158.8438,343.125 158.25,342.8594 Q157.6563,342.5781 157.0313,342.5781 Q155.6875,342.5781 155,343.6563 Q154.3125,344.7188 154.3125,346.8125 Q154.3125,348.9063 155,349.9844 Q155.6875,351.0469 157.0313,351.0469 Q157.6563,351.0469 158.25,350.7813 Q158.8438,350.5 159.4688,349.9219 L159.4688,352.6406 Z " fill="#000000"/><text fill="#000000" font-family="sans-serif" font-size="14" lengthAdjust="spacing" textLength="111" x="170.5" y="351.8467">CpuIdIntelDump</text><line style="stroke:#181818;stroke-width:0.5;" x1="142.5" x2="283.5" y1="363" y2="363"/><line style="stroke:#181818;stroke-width:0.5;" x1="142.5" x2="283.5" y1="371" y2="371"/></g><!--MD5=[81a0a5e11889952950dfb4a7b883e994]
class ICpuIdDump--><g id="elem_ICpuIdDump"><rect codeLine="28" fill="#F1F1F1" height="48" id="ICpuIdDump" rx="2.5" ry="2.5" style="stroke:#181818;stroke-width:0.5;" width="119" x="305.5" y="450.5"/><ellipse cx="320.5" cy="466.5" fill="#A9DCDF" rx="11" ry="11" style="stroke:#181818;stroke-width:1.0;"/><path d="M320.6094,461.8438 L319.4531,466.9219 L321.7813,466.9219 L320.6094,461.8438 Z M319.125,459.6094 L322.1094,459.6094 L325.4688,472 L323.0156,472 L322.25,468.9375 L318.9688,468.9375 L318.2188,472 L315.7813,472 L319.125,459.6094 Z " fill="#000000"/><text fill="#000000" font-family="sans-serif" font-size="14" font-style="italic" lengthAdjust="spacing" textLength="87" x="334.5" y="471.3467">ICpuIdDump</text><line style="stroke:#181818;stroke-width:0.5;" x1="306.5" x2="423.5" y1="482.5" y2="482.5"/><line style="stroke:#181818;stroke-width:0.5;" x1="306.5" x2="423.5" y1="490.5" y2="490.5"/></g><!--MD5=[1b31051c55853c7df52b17ce7be69618]
class CpuIdDump--><g id="elem_CpuIdDump"><rect codeLine="30" fill="#F1F1F1" height="48" id="CpuIdDump" rx="2.5" ry="2.5" style="stroke:#181818;stroke-width:0.5;" width="114" x="156" y="450.5"/><ellipse cx="171" cy="466.5" fill="#ADD1B2" rx="11" ry="11" style="stroke:#181818;stroke-width:1.0;"/><path d="M173.9688,472.1406 Q173.3906,472.4375 172.75,472.5781 Q172.1094,472.7344 171.4063,472.7344 Q168.9063,472.7344 167.5781,471.0938 Q166.2656,469.4375 166.2656,466.3125 Q166.2656,463.1875 167.5781,461.5313 Q168.9063,459.875 171.4063,459.875 Q172.1094,459.875 172.75,460.0313 Q173.4063,460.1875 173.9688,460.4844 L173.9688,463.2031 Q173.3438,462.625 172.75,462.3594 Q172.1563,462.0781 171.5313,462.0781 Q170.1875,462.0781 169.5,463.1563 Q168.8125,464.2188 168.8125,466.3125 Q168.8125,468.4063 169.5,469.4844 Q170.1875,470.5469 171.5313,470.5469 Q172.1563,470.5469 172.75,470.2813 Q173.3438,470 173.9688,469.4219 L173.9688,472.1406 Z " fill="#000000"/><text fill="#000000" font-family="sans-serif" font-size="14" lengthAdjust="spacing" textLength="82" x="185" y="471.3467">CpuIdDump</text><line style="stroke:#181818;stroke-width:0.5;" x1="157" x2="269" y1="482.5" y2="482.5"/><line style="stroke:#181818;stroke-width:0.5;" x1="157" x2="269" y1="490.5" y2="490.5"/></g><!--MD5=[522ce962b634f630d708d7817838a4b2]
reverse link ICpuIdOutputWriter to CpuIdXmlOutputWriter--><g id="link_ICpuIdOutputWriter_CpuIdXmlOutputWriter"><path codeLine="6" d="M119.16,183.02 C118.26,196.58 117.31,211.04 116.54,222.68 " fill="none" id="ICpuIdOutputWriter-backto-CpuIdXmlOutputWriter" style="stroke:#181818;stroke-width:1.0;stroke-dasharray:7.0,7.0;"/><polygon fill="none" points="112.18,182.5,120.48,163,126.15,183.42,112.18,182.5" style="stroke:#181818;stroke-width:1.0;"/></g><!--MD5=[b0ea4969e5e1abe1494ecbe8f967c5bc]
link CpuIdOptions to main--><g id="link_CpuIdOptions_main"><path codeLine="32" d="M236.2,31 C243.54,31 250.87,31 258.21,31 " fill="none" id="CpuIdOptions-to-main" style="stroke:#181818;stroke-width:1.0;"/><polygon fill="#181818" points="271.42,31,265.42,27,259.42,31,265.42,35,271.42,31" style="stroke:#181818;stroke-width:1.0;"/></g><!--MD5=[97a02e0683f3b3c01c95ec77d1493c3e]
reverse link main to ICpuIdFactory--><g id="link_main_ICpuIdFactory"><path codeLine="34" d="M304,68.34 C304,83.68 304,101.1 304,114.68 " fill="none" id="main-backto-ICpuIdFactory" style="stroke:#181818;stroke-width:1.0;"/><polygon fill="#181818" points="304,55,300,61,304,67,308,61,304,55" style="stroke:#181818;stroke-width:1.0;"/></g><!--MD5=[df01111539a2849f8e286df2266c12d6]
reverse link main to ICpuIdOutputWriter--><g id="link_main_ICpuIdOutputWriter"><path codeLine="35" d="M260.05,57.6 C230.03,75.08 190.59,98.05 161.55,114.97 " fill="none" id="main-backto-ICpuIdOutputWriter" style="stroke:#181818;stroke-width:1.0;"/><polygon fill="#181818" points="271.46,50.95,264.2623,50.5107,261.0884,56.9858,268.2862,57.4251,271.46,50.95" style="stroke:#181818;stroke-width:1.0;"/></g><!--MD5=[70a78e605dadc80de4b1144e87885447]
reverse link main to CpuIdDumper--><g id="link_main_CpuIdDumper"><path codeLine="36" d="M348.12,52.86 C362.94,62.28 377.78,74.96 386,91 C400.59,119.48 397.88,133.29 386,163 C376.4,187.01 356.18,208.04 338.6,222.92 " fill="none" id="main-backto-CpuIdDumper" style="stroke:#181818;stroke-width:1.0;"/><polygon fill="#181818" points="336.9,46.29,340.0544,52.7746,347.2534,52.3569,344.099,45.8723,336.9,46.29" style="stroke:#181818;stroke-width:1.0;"/></g><!--MD5=[2805147923be929c1f6d8504a1a9a2cc]
link ICpuIdFactory to CpuIdDumper--><g id="link_ICpuIdFactory_CpuIdDumper"><path codeLine="37" d="M304.65,163 C305.03,176.52 305.53,193.92 305.96,209.3 " fill="none" id="ICpuIdFactory-to-CpuIdDumper" style="stroke:#181818;stroke-width:1.0;"/><polygon fill="none" points="306.34,222.68,310.167,216.5682,305.9973,210.6849,302.1703,216.7967,306.34,222.68" style="stroke:#181818;stroke-width:1.0;"/></g><!--MD5=[9e23bff66daa8c1e27a5b72c86fdef1c]
link ICpuIdOutputWriter to CpuIdDumper--><g id="link_ICpuIdOutputWriter_CpuIdDumper"><path codeLine="38" d="M162.14,163 C189.44,178.64 225.82,199.48 255.28,216.37 " fill="none" id="ICpuIdOutputWriter-to-CpuIdDumper" style="stroke:#181818;stroke-width:1.0;"/><polygon fill="none" points="266.62,222.86,263.3986,216.4084,256.2043,216.9007,259.4257,223.3522,266.62,222.86" style="stroke:#181818;stroke-width:1.0;"/></g><!--MD5=[d839696b014c7cd4e2f3cd133457cfa1]
reverse link CpuIdDumper to CpuIdIntelDump--><g id="link_CpuIdDumper_CpuIdIntelDump"><path codeLine="41" d="M277.66,281.08 C263.39,297.17 246.58,316.13 233.68,330.68 " fill="none" id="CpuIdDumper-backto-CpuIdIntelDump" style="stroke:#181818;stroke-width:1.0;"/><polygon fill="#181818" points="286.6,271,279.6262,272.8346,278.6375,279.9776,285.6113,278.143,286.6,271" style="stroke:#181818;stroke-width:1.0;"/></g><!--MD5=[6b49a45892e653a6c8b013ed7ff42bc7]
reverse link CpuIdDumper to CpuIdDefaultDump--><g id="link_CpuIdDumper_CpuIdDefaultDump"><path codeLine="42" d="M336.34,281.08 C350.61,297.17 367.42,316.13 380.32,330.68 " fill="none" id="CpuIdDumper-backto-CpuIdDefaultDump" style="stroke:#181818;stroke-width:1.0;"/><polygon fill="#181818" points="327.4,271,328.3887,278.143,335.3625,279.9776,334.3738,272.8346,327.4,271" style="stroke:#181818;stroke-width:1.0;"/></g><!--MD5=[053dcf023c4de71c187d7969141a2624]
link CpuIdIntelDump to CpuIdDump--><g id="link_CpuIdIntelDump_CpuIdDump"><path codeLine="44" d="M213,379.21 C213,393.78 213,413.01 213,430.3 " fill="none" id="CpuIdIntelDump-to-CpuIdDump" style="stroke:#181818;stroke-width:1.0;"/><polygon fill="none" points="220,430.33,213,450.33,206,430.33,220,430.33" style="stroke:#181818;stroke-width:1.0;"/></g><!--MD5=[c0dbecd9879e86b2d06a9434792602ca]
link CpuIdDefaultDump to CpuIdDump--><g id="link_CpuIdDefaultDump_CpuIdDump"><path codeLine="45" d="M363.86,379.21 C336.31,396.43 298.32,420.18 267.35,439.53 " fill="none" id="CpuIdDefaultDump-to-CpuIdDump" style="stroke:#181818;stroke-width:1.0;"/><polygon fill="none" points="270.74,445.67,250.07,450.33,263.32,433.8,270.74,445.67" style="stroke:#181818;stroke-width:1.0;"/></g><!--MD5=[7a80586505d4ed5e762017c42d8a4a2e]
link CpuIdDump to ICpuIdDump--><g id="link_CpuIdDump_ICpuIdDump"><path codeLine="46" d="M270.3,474.5 C275.33,474.5 280.36,474.5 285.4,474.5 " fill="none" id="CpuIdDump-to-ICpuIdDump" style="stroke:#181818;stroke-width:1.0;stroke-dasharray:7.0,7.0;"/><polygon fill="none" points="285.44,467.5,305.44,474.5,285.44,481.5,285.44,467.5" style="stroke:#181818;stroke-width:1.0;"/></g><!--MD5=[de07f597a072d5af841f2c89be66b2d5]
@startuml

rectangle {
    abstract class ICpuIdOutputWriter { }
    class CpuIdXmlOutputWriter { }

    ICpuIdOutputWriter <|.d. CpuIdXmlOutputWriter
}

class main { }

class CpuIdOptions { }

abstract class ICpuIdFactory { }
' abstract class ICpuId { }

class CpuIdDumper { }

class CpuIdDefaultDump { }
note bottom {
    Extra class that
    might specialize
    dumping a
    different CPU
}

class CpuIdIntelDump { }

abstract class ICpuIdDump { }

class CpuIdDump { }

main *-l- CpuIdOptions

main *-d- ICpuIdFactory
main *-d- ICpuIdOutputWriter
main *-d- CpuIdDumper
CpuIdDumper o-u- ICpuIdFactory
CpuIdDumper o-l- ICpuIdOutputWriter
' ICpuIdFactory -r-> ICpuId : <<instantiates>>

CpuIdDumper *-d- CpuIdIntelDump
CpuIdDumper *-d- CpuIdDefaultDump

CpuIdIntelDump -d-|> CpuIdDump
CpuIdDefaultDump -d-|> CpuIdDump
CpuIdDump .r.|> ICpuIdDump

@enduml

@startuml

rectangle {
    abstract class ICpuIdOutputWriter { }
    class CpuIdXmlOutputWriter { }

    ICpuIdOutputWriter <|.d. CpuIdXmlOutputWriter
}

class main { }

class CpuIdOptions { }

abstract class ICpuIdFactory { }

class CpuIdDumper { }

class CpuIdDefaultDump { }
note bottom {
    Extra class that
    might specialize
    dumping a
    different CPU
}

class CpuIdIntelDump { }

abstract class ICpuIdDump { }

class CpuIdDump { }

main *-l- CpuIdOptions

main *-d- ICpuIdFactory
main *-d- ICpuIdOutputWriter
main *-d- CpuIdDumper
CpuIdDumper o-u- ICpuIdFactory
CpuIdDumper o-l- ICpuIdOutputWriter

CpuIdDumper *-d- CpuIdIntelDump
CpuIdDumper *-d- CpuIdDefaultDump

CpuIdIntelDump -d-|> CpuIdDump
CpuIdDefaultDump -d-|> CpuIdDump
CpuIdDump .r.|> ICpuIdDump

@enduml

PlantUML version 1.2022.7(Mon Aug 22 19:01:30 CEST 2022)
(GPL source distribution)
Java Runtime: OpenJDK Runtime Environment
JVM: OpenJDK 64-Bit Server VM
Default Encoding: UTF-8
Language: en
Country: US
--></g></svg>