<?xml version="1.0" encoding="UTF-8" standalone="no"?><svg xmlns="http://www.w3.org/2000/svg" xmlns:xlink="http://www.w3.org/1999/xlink" contentStyleType="text/css" height="657px" preserveAspectRatio="none" style="width:1048px;height:657px;background:#FFFFFF;" version="1.1" viewBox="0 0 1048 657" width="1048px" zoomAndPan="magnify"><defs/><g><!--MD5=[15faab5924118989e3daca4f4203be56]
class ICpuIdFactory--><g id="elem_ICpuIdFactory"><rect codeLine="2" fill="#F1F1F1" height="80.5938" id="ICpuIdFactory" rx="2.5" ry="2.5" style="stroke:#181818;stroke-width:0.5;" width="319" x="363.5" y="7"/><ellipse cx="470.75" cy="23" fill="#A9DCDF" rx="11" ry="11" style="stroke:#181818;stroke-width:1.0;"/><path d="M470.8594,18.3438 L469.7031,23.4219 L472.0313,23.4219 L470.8594,18.3438 Z M469.375,16.1094 L472.3594,16.1094 L475.7188,28.5 L473.2656,28.5 L472.5,25.4375 L469.2188,25.4375 L468.4688,28.5 L466.0313,28.5 L469.375,16.1094 Z " fill="#000000"/><text fill="#000000" font-family="sans-serif" font-size="14" font-style="italic" lengthAdjust="spacing" textLength="96" x="491.25" y="27.8467">ICpuIdFactory</text><line style="stroke:#181818;stroke-width:0.5;" x1="364.5" x2="681.5" y1="39" y2="39"/><line style="stroke:#181818;stroke-width:0.5;" x1="364.5" x2="681.5" y1="47" y2="47"/><ellipse cx="374.5" cy="60.6484" fill="#84BE84" rx="3" ry="3" style="stroke:#038048;stroke-width:1.0;"/><text fill="#000000" font-family="sans-serif" font-size="14" font-style="italic" lengthAdjust="spacing" textLength="293" x="383.5" y="63.9951">create(cpunum: int) : unique_ptr&lt;ICpuId&gt;</text><ellipse cx="374.5" cy="76.9453" fill="#84BE84" rx="3" ry="3" style="stroke:#038048;stroke-width:1.0;"/><text fill="#000000" font-family="sans-serif" font-size="14" lengthAdjust="spacing" textLength="182" x="383.5" y="80.292">~ICpuIdFactory() = default</text></g><!--MD5=[622e9bcad37ae1b3b91c635667c1e00f]
class CpuIdFactory--><g id="elem_CpuIdFactory"><rect codeLine="7" fill="#F1F1F1" height="96.8906" id="CpuIdFactory" rx="2.5" ry="2.5" style="stroke:#181818;stroke-width:0.5;" width="317" x="364.5" y="148"/><ellipse cx="468.25" cy="164" fill="#ADD1B2" rx="11" ry="11" style="stroke:#181818;stroke-width:1.0;"/><path d="M471.2188,169.6406 Q470.6406,169.9375 470,170.0781 Q469.3594,170.2344 468.6563,170.2344 Q466.1563,170.2344 464.8281,168.5938 Q463.5156,166.9375 463.5156,163.8125 Q463.5156,160.6875 464.8281,159.0313 Q466.1563,157.375 468.6563,157.375 Q469.3594,157.375 470,157.5313 Q470.6563,157.6875 471.2188,157.9844 L471.2188,160.7031 Q470.5938,160.125 470,159.8594 Q469.4063,159.5781 468.7813,159.5781 Q467.4375,159.5781 466.75,160.6563 Q466.0625,161.7188 466.0625,163.8125 Q466.0625,165.9063 466.75,166.9844 Q467.4375,168.0469 468.7813,168.0469 Q469.4063,168.0469 470,167.7813 Q470.5938,167.5 471.2188,166.9219 L471.2188,169.6406 Z " fill="#000000"/><text fill="#000000" font-family="sans-serif" font-size="14" lengthAdjust="spacing" textLength="90" x="488.75" y="168.8467">CpuIdFactory</text><rect fill="#FFFFFF" height="15.9688" style="stroke:#181818;stroke-width:1.0;stroke-dasharray:2.0,2.0;" width="9" x="675.5" y="145"/><text fill="#000000" font-family="sans-serif" font-size="12" font-style="italic" lengthAdjust="spacing" textLength="7" x="676.5" y="157.1387">T</text><line style="stroke:#181818;stroke-width:0.5;" x1="365.5" x2="680.5" y1="180" y2="180"/><line style="stroke:#181818;stroke-width:0.5;" x1="365.5" x2="680.5" y1="188" y2="188"/><ellipse cx="375.5" cy="201.6484" fill="#84BE84" rx="3" ry="3" style="stroke:#038048;stroke-width:1.0;"/><text fill="#000000" font-family="sans-serif" font-size="14" lengthAdjust="spacing" textLength="100" x="384.5" y="204.9951">CpuIdFactory()</text><ellipse cx="375.5" cy="217.9453" fill="#84BE84" rx="3" ry="3" style="stroke:#038048;stroke-width:1.0;"/><text fill="#000000" font-family="sans-serif" font-size="14" lengthAdjust="spacing" textLength="177" x="384.5" y="221.292">CpuIdFactory(config: T&amp;);</text><ellipse cx="375.5" cy="234.2422" fill="#84BE84" rx="3" ry="3" style="stroke:#038048;stroke-width:1.0;"/><text fill="#000000" font-family="sans-serif" font-size="14" lengthAdjust="spacing" textLength="291" x="384.5" y="237.5889">create(cpunum: int) : unique_ptr&lt;ICpuId&gt;</text></g><!--MD5=[3121f8f93bcd89f0741242316fb72c57]
class CpuIdDefaultConfig--><g id="elem_CpuIdDefaultConfig"><rect codeLine="15" fill="#F1F1F1" height="48" id="CpuIdDefaultConfig" rx="2.5" ry="2.5" style="stroke:#181818;stroke-width:0.5;" width="165" x="164.5" y="486"/><ellipse cx="179.5" cy="502" fill="#ADD1B2" rx="11" ry="11" style="stroke:#181818;stroke-width:1.0;"/><path d="M182.4688,507.6406 Q181.8906,507.9375 181.25,508.0781 Q180.6094,508.2344 179.9063,508.2344 Q177.4063,508.2344 176.0781,506.5938 Q174.7656,504.9375 174.7656,501.8125 Q174.7656,498.6875 176.0781,497.0313 Q177.4063,495.375 179.9063,495.375 Q180.6094,495.375 181.25,495.5313 Q181.9063,495.6875 182.4688,495.9844 L182.4688,498.7031 Q181.8438,498.125 181.25,497.8594 Q180.6563,497.5781 180.0313,497.5781 Q178.6875,497.5781 178,498.6563 Q177.3125,499.7188 177.3125,501.8125 Q177.3125,503.9063 178,504.9844 Q178.6875,506.0469 180.0313,506.0469 Q180.6563,506.0469 181.25,505.7813 Q181.8438,505.5 182.4688,504.9219 L182.4688,507.6406 Z " fill="#000000"/><text fill="#000000" font-family="sans-serif" font-size="14" lengthAdjust="spacing" textLength="133" x="193.5" y="506.8467">CpuIdDefaultConfig</text><line style="stroke:#181818;stroke-width:0.5;" x1="165.5" x2="328.5" y1="518" y2="518"/><line style="stroke:#181818;stroke-width:0.5;" x1="165.5" x2="328.5" y1="526" y2="526"/></g><!--MD5=[a7e2c86575ea3c093a732736d4e3d54a]
class CpuIdFactory_CpuIdDefaultConfig--><g id="elem_CpuIdFactory_CpuIdDefaultConfig"><rect codeLine="17" fill="#F1F1F1" height="96.8906" id="CpuIdFactory_CpuIdDefaultConfig" rx="2.5" ry="2.5" style="stroke:#181818;stroke-width:0.5;" width="322" x="7" y="313"/><ellipse cx="56.75" cy="329" fill="#ADD1B2" rx="11" ry="11" style="stroke:#181818;stroke-width:1.0;"/><path d="M59.7188,334.6406 Q59.1406,334.9375 58.5,335.0781 Q57.8594,335.2344 57.1563,335.2344 Q54.6563,335.2344 53.3281,333.5938 Q52.0156,331.9375 52.0156,328.8125 Q52.0156,325.6875 53.3281,324.0313 Q54.6563,322.375 57.1563,322.375 Q57.8594,322.375 58.5,322.5313 Q59.1563,322.6875 59.7188,322.9844 L59.7188,325.7031 Q59.0938,325.125 58.5,324.8594 Q57.9063,324.5781 57.2813,324.5781 Q55.9375,324.5781 55.25,325.6563 Q54.5625,326.7188 54.5625,328.8125 Q54.5625,330.9063 55.25,331.9844 Q55.9375,333.0469 57.2813,333.0469 Q57.9063,333.0469 58.5,332.7813 Q59.0938,332.5 59.7188,331.9219 L59.7188,334.6406 Z " fill="#000000"/><text fill="#000000" font-family="sans-serif" font-size="14" lengthAdjust="spacing" textLength="90" x="77.25" y="333.8467">CpuIdFactory</text><rect fill="#FFFFFF" height="15.9688" style="stroke:#181818;stroke-width:1.0;stroke-dasharray:2.0,2.0;" width="122" x="210" y="310"/><text fill="#000000" font-family="sans-serif" font-size="12" font-style="italic" lengthAdjust="spacing" textLength="120" x="211" y="322.1387">CpuIdDefaultConfig</text><line style="stroke:#181818;stroke-width:0.5;" x1="8" x2="328" y1="345" y2="345"/><line style="stroke:#181818;stroke-width:0.5;" x1="8" x2="328" y1="353" y2="353"/><ellipse cx="18" cy="366.6484" fill="#84BE84" rx="3" ry="3" style="stroke:#038048;stroke-width:1.0;"/><text fill="#000000" font-family="sans-serif" font-size="14" lengthAdjust="spacing" textLength="100" x="27" y="369.9951">CpuIdFactory()</text><ellipse cx="18" cy="382.9453" fill="#84BE84" rx="3" ry="3" style="stroke:#038048;stroke-width:1.0;"/><text fill="#000000" font-family="sans-serif" font-size="14" lengthAdjust="spacing" textLength="296" x="27" y="386.292">CpuIdFactory(config: CpuIdDefaultConfig&amp;)</text><ellipse cx="18" cy="399.2422" fill="#84BE84" rx="3" ry="3" style="stroke:#038048;stroke-width:1.0;"/><text fill="#000000" font-family="sans-serif" font-size="14" lengthAdjust="spacing" textLength="291" x="27" y="402.5889">create(cpunum: int) : unique_ptr&lt;ICpuId&gt;</text></g><!--MD5=[ff4d33eef6464a213d4e5f89bf4a0e00]
class CpuIdNativeConfig--><g id="elem_CpuIdNativeConfig"><rect codeLine="23" fill="#F1F1F1" height="48" id="CpuIdNativeConfig" rx="2.5" ry="2.5" style="stroke:#181818;stroke-width:0.5;" width="158" x="444" y="486"/><ellipse cx="459" cy="502" fill="#ADD1B2" rx="11" ry="11" style="stroke:#181818;stroke-width:1.0;"/><path d="M461.9688,507.6406 Q461.3906,507.9375 460.75,508.0781 Q460.1094,508.2344 459.4063,508.2344 Q456.9063,508.2344 455.5781,506.5938 Q454.2656,504.9375 454.2656,501.8125 Q454.2656,498.6875 455.5781,497.0313 Q456.9063,495.375 459.4063,495.375 Q460.1094,495.375 460.75,495.5313 Q461.4063,495.6875 461.9688,495.9844 L461.9688,498.7031 Q461.3438,498.125 460.75,497.8594 Q460.1563,497.5781 459.5313,497.5781 Q458.1875,497.5781 457.5,498.6563 Q456.8125,499.7188 456.8125,501.8125 Q456.8125,503.9063 457.5,504.9844 Q458.1875,506.0469 459.5313,506.0469 Q460.1563,506.0469 460.75,505.7813 Q461.3438,505.5 461.9688,504.9219 L461.9688,507.6406 Z " fill="#000000"/><text fill="#000000" font-family="sans-serif" font-size="14" lengthAdjust="spacing" textLength="126" x="473" y="506.8467">CpuIdNativeConfig</text><line style="stroke:#181818;stroke-width:0.5;" x1="445" x2="601" y1="518" y2="518"/><line style="stroke:#181818;stroke-width:0.5;" x1="445" x2="601" y1="526" y2="526"/></g><!--MD5=[99f5fdba02107552d5d2a64f62b3e090]
class CpuIdFactory_CpuIdNativeConfig--><g id="elem_CpuIdFactory_CpuIdNativeConfig"><rect codeLine="25" fill="#F1F1F1" height="96.8906" id="CpuIdFactory_CpuIdNativeConfig" rx="2.5" ry="2.5" style="stroke:#181818;stroke-width:0.5;" width="317" x="364.5" y="313"/><ellipse cx="414.75" cy="329" fill="#ADD1B2" rx="11" ry="11" style="stroke:#181818;stroke-width:1.0;"/><path d="M417.7188,334.6406 Q417.1406,334.9375 416.5,335.0781 Q415.8594,335.2344 415.1563,335.2344 Q412.6563,335.2344 411.3281,333.5938 Q410.0156,331.9375 410.0156,328.8125 Q410.0156,325.6875 411.3281,324.0313 Q412.6563,322.375 415.1563,322.375 Q415.8594,322.375 416.5,322.5313 Q417.1563,322.6875 417.7188,322.9844 L417.7188,325.7031 Q417.0938,325.125 416.5,324.8594 Q415.9063,324.5781 415.2813,324.5781 Q413.9375,324.5781 413.25,325.6563 Q412.5625,326.7188 412.5625,328.8125 Q412.5625,330.9063 413.25,331.9844 Q413.9375,333.0469 415.2813,333.0469 Q415.9063,333.0469 416.5,332.7813 Q417.0938,332.5 417.7188,331.9219 L417.7188,334.6406 Z " fill="#000000"/><text fill="#000000" font-family="sans-serif" font-size="14" lengthAdjust="spacing" textLength="90" x="435.25" y="333.8467">CpuIdFactory</text><rect fill="#FFFFFF" height="15.9688" style="stroke:#181818;stroke-width:1.0;stroke-dasharray:2.0,2.0;" width="116" x="568.5" y="310"/><text fill="#000000" font-family="sans-serif" font-size="12" font-style="italic" lengthAdjust="spacing" textLength="114" x="569.5" y="322.1387">CpuIdNativeConfig</text><line style="stroke:#181818;stroke-width:0.5;" x1="365.5" x2="680.5" y1="345" y2="345"/><line style="stroke:#181818;stroke-width:0.5;" x1="365.5" x2="680.5" y1="353" y2="353"/><ellipse cx="375.5" cy="366.6484" fill="#84BE84" rx="3" ry="3" style="stroke:#038048;stroke-width:1.0;"/><text fill="#000000" font-family="sans-serif" font-size="14" lengthAdjust="spacing" textLength="100" x="384.5" y="369.9951">CpuIdFactory()</text><ellipse cx="375.5" cy="382.9453" fill="#84BE84" rx="3" ry="3" style="stroke:#038048;stroke-width:1.0;"/><text fill="#000000" font-family="sans-serif" font-size="14" lengthAdjust="spacing" textLength="289" x="384.5" y="386.292">CpuIdFactory(config: CpuIdNativeConfig&amp;)</text><ellipse cx="375.5" cy="399.2422" fill="#84BE84" rx="3" ry="3" style="stroke:#038048;stroke-width:1.0;"/><text fill="#000000" font-family="sans-serif" font-size="14" lengthAdjust="spacing" textLength="291" x="384.5" y="402.5889">create(cpunum: int) : unique_ptr&lt;ICpuId&gt;</text></g><!--MD5=[29e1f318ea704c93a23028b3da6d217d]
class CpuIdDeviceConfig--><g id="elem_CpuIdDeviceConfig"><rect codeLine="31" fill="#F1F1F1" height="64.2969" id="CpuIdDeviceConfig" rx="2.5" ry="2.5" style="stroke:#181818;stroke-width:0.5;" width="225" x="700.5" y="478"/><ellipse cx="743.4" cy="494" fill="#ADD1B2" rx="11" ry="11" style="stroke:#181818;stroke-width:1.0;"/><path d="M746.3688,499.6406 Q745.7906,499.9375 745.15,500.0781 Q744.5094,500.2344 743.8063,500.2344 Q741.3063,500.2344 739.9781,498.5938 Q738.6656,496.9375 738.6656,493.8125 Q738.6656,490.6875 739.9781,489.0313 Q741.3063,487.375 743.8063,487.375 Q744.5094,487.375 745.15,487.5313 Q745.8063,487.6875 746.3688,487.9844 L746.3688,490.7031 Q745.7438,490.125 745.15,489.8594 Q744.5563,489.5781 743.9313,489.5781 Q742.5875,489.5781 741.9,490.6563 Q741.2125,491.7188 741.2125,493.8125 Q741.2125,495.9063 741.9,496.9844 Q742.5875,498.0469 743.9313,498.0469 Q744.5563,498.0469 745.15,497.7813 Q745.7438,497.5 746.3688,496.9219 L746.3688,499.6406 Z " fill="#000000"/><text fill="#000000" font-family="sans-serif" font-size="14" lengthAdjust="spacing" textLength="131" x="763.6" y="498.8467">CpuIdDeviceConfig</text><line style="stroke:#181818;stroke-width:0.5;" x1="701.5" x2="924.5" y1="510" y2="510"/><text fill="#000000" font-family="sans-serif" font-size="14" lengthAdjust="spacing" textLength="213" x="706.5" y="526.9951">method: DeviceAccessMethod</text><line style="stroke:#181818;stroke-width:0.5;" x1="701.5" x2="924.5" y1="534.2969" y2="534.2969"/></g><!--MD5=[315f6fb945cf69e563368d784b42572c]
class CpuIdFactory_CpuIdDeviceConfig--><g id="elem_CpuIdFactory_CpuIdDeviceConfig"><rect codeLine="35" fill="#F1F1F1" height="113.1875" id="CpuIdFactory_CpuIdDeviceConfig" rx="2.5" ry="2.5" style="stroke:#181818;stroke-width:0.5;" width="320" x="717" y="305"/><ellipse cx="767.75" cy="321" fill="#ADD1B2" rx="11" ry="11" style="stroke:#181818;stroke-width:1.0;"/><path d="M770.7188,326.6406 Q770.1406,326.9375 769.5,327.0781 Q768.8594,327.2344 768.1563,327.2344 Q765.6563,327.2344 764.3281,325.5938 Q763.0156,323.9375 763.0156,320.8125 Q763.0156,317.6875 764.3281,316.0313 Q765.6563,314.375 768.1563,314.375 Q768.8594,314.375 769.5,314.5313 Q770.1563,314.6875 770.7188,314.9844 L770.7188,317.7031 Q770.0938,317.125 769.5,316.8594 Q768.9063,316.5781 768.2813,316.5781 Q766.9375,316.5781 766.25,317.6563 Q765.5625,318.7188 765.5625,320.8125 Q765.5625,322.9063 766.25,323.9844 Q766.9375,325.0469 768.2813,325.0469 Q768.9063,325.0469 769.5,324.7813 Q770.0938,324.5 770.7188,323.9219 L770.7188,326.6406 Z " fill="#000000"/><text fill="#000000" font-family="sans-serif" font-size="14" lengthAdjust="spacing" textLength="90" x="788.25" y="325.8467">CpuIdFactory</text><rect fill="#FFFFFF" height="15.9688" style="stroke:#181818;stroke-width:1.0;stroke-dasharray:2.0,2.0;" width="118" x="922" y="302"/><text fill="#000000" font-family="sans-serif" font-size="12" font-style="italic" lengthAdjust="spacing" textLength="116" x="923" y="314.1387">CpuIdDeviceConfig</text><line style="stroke:#181818;stroke-width:0.5;" x1="718" x2="1036" y1="337" y2="337"/><rect fill="none" height="6" style="stroke:#C82930;stroke-width:1.0;" width="6" x="725" y="347.6484"/><text fill="#000000" font-family="sans-serif" font-size="14" lengthAdjust="spacing" textLength="233" x="737" y="353.9951">m_method: DeviceAccessMethod</text><line style="stroke:#181818;stroke-width:0.5;" x1="718" x2="1036" y1="361.2969" y2="361.2969"/><ellipse cx="728" cy="374.9453" fill="#84BE84" rx="3" ry="3" style="stroke:#038048;stroke-width:1.0;"/><text fill="#000000" font-family="sans-serif" font-size="14" lengthAdjust="spacing" textLength="100" x="737" y="378.292">CpuIdFactory()</text><ellipse cx="728" cy="391.2422" fill="#84BE84" rx="3" ry="3" style="stroke:#038048;stroke-width:1.0;"/><text fill="#000000" font-family="sans-serif" font-size="14" lengthAdjust="spacing" textLength="294" x="737" y="394.5889">CpuIdFactory(config: CpuIdDeviceConfig&amp;)</text><ellipse cx="728" cy="407.5391" fill="#84BE84" rx="3" ry="3" style="stroke:#038048;stroke-width:1.0;"/><text fill="#000000" font-family="sans-serif" font-size="14" lengthAdjust="spacing" textLength="291" x="737" y="410.8857">create(cpunum: int) : unique_ptr&lt;ICpuId&gt;</text></g><!--MD5=[991b114f467a6b5db84b8a3df7e9efcc]
class ICpuIdConfig--><g id="elem_ICpuIdConfig"><rect codeLine="51" fill="#F1F1F1" height="48" id="ICpuIdConfig" rx="2.5" ry="2.5" style="stroke:#181818;stroke-width:0.5;" width="119" x="463.5" y="602"/><ellipse cx="478.5" cy="618" fill="#ADD1B2" rx="11" ry="11" style="stroke:#181818;stroke-width:1.0;"/><path d="M481.4688,623.6406 Q480.8906,623.9375 480.25,624.0781 Q479.6094,624.2344 478.9063,624.2344 Q476.4063,624.2344 475.0781,622.5938 Q473.7656,620.9375 473.7656,617.8125 Q473.7656,614.6875 475.0781,613.0313 Q476.4063,611.375 478.9063,611.375 Q479.6094,611.375 480.25,611.5313 Q480.9063,611.6875 481.4688,611.9844 L481.4688,614.7031 Q480.8438,614.125 480.25,613.8594 Q479.6563,613.5781 479.0313,613.5781 Q477.6875,613.5781 477,614.6563 Q476.3125,615.7188 476.3125,617.8125 Q476.3125,619.9063 477,620.9844 Q477.6875,622.0469 479.0313,622.0469 Q479.6563,622.0469 480.25,621.7813 Q480.8438,621.5 481.4688,620.9219 L481.4688,623.6406 Z " fill="#000000"/><text fill="#000000" font-family="sans-serif" font-size="14" lengthAdjust="spacing" textLength="87" x="492.5" y="622.8467">ICpuIdConfig</text><line style="stroke:#181818;stroke-width:0.5;" x1="464.5" x2="581.5" y1="634" y2="634"/><line style="stroke:#181818;stroke-width:0.5;" x1="464.5" x2="581.5" y1="642" y2="642"/></g><!--MD5=[c0b9221b9fe0bb1233f71c78fee9de77]
reverse link ICpuIdFactory to CpuIdFactory--><g id="link_ICpuIdFactory_CpuIdFactory"><path codeLine="13" d="M523,108.71 C523,121.75 523,135.36 523,147.84 " fill="none" id="ICpuIdFactory-backto-CpuIdFactory" style="stroke:#181818;stroke-width:1.0;stroke-dasharray:7.0,7.0;"/><polygon fill="none" points="516,108.28,523,88.28,530,108.28,516,108.28" style="stroke:#181818;stroke-width:1.0;"/></g><!--MD5=[f7d51d3f9701a0a4cb778f10791a432b]
link CpuIdFactory to CpuIdFactory_CpuIdDefaultConfig--><g id="link_CpuIdFactory_CpuIdFactory_CpuIdDefaultConfig"><path codeLine="42" d="M419.36,245.08 C372.81,266.46 317.99,291.63 271.46,313 " fill="none" id="CpuIdFactory-CpuIdFactory_CpuIdDefaultConfig" style="stroke:#181818;stroke-width:1.0;"/></g><!--MD5=[bb611023dc08cfa2a773a4c45177f436]
link CpuIdFactory_CpuIdDefaultConfig to CpuIdDefaultConfig--><g id="link_CpuIdFactory_CpuIdDefaultConfig_CpuIdDefaultConfig"><path codeLine="43" d="M193.65,410.06 C207.35,435.46 223.59,465.58 234.52,485.86 " fill="none" id="CpuIdFactory_CpuIdDefaultConfig-CpuIdDefaultConfig" style="stroke:#181818;stroke-width:1.0;"/></g><!--MD5=[a9ae0b9735b0710e15a1a09a3b8b9d83]
link CpuIdFactory to CpuIdFactory_CpuIdNativeConfig--><g id="link_CpuIdFactory_CpuIdFactory_CpuIdNativeConfig"><path codeLine="45" d="M523,245.08 C523,266.42 523,291.52 523,312.86 " fill="none" id="CpuIdFactory-CpuIdFactory_CpuIdNativeConfig" style="stroke:#181818;stroke-width:1.0;"/></g><!--MD5=[35d8baa1fa17a761683bf7f20e1d003a]
link CpuIdFactory_CpuIdNativeConfig to CpuIdNativeConfig--><g id="link_CpuIdFactory_CpuIdNativeConfig_CpuIdNativeConfig"><path codeLine="46" d="M523,410.06 C523,435.46 523,465.58 523,485.86 " fill="none" id="CpuIdFactory_CpuIdNativeConfig-CpuIdNativeConfig" style="stroke:#181818;stroke-width:1.0;"/></g><!--MD5=[e10b31fd685a51dafc5e02b286a1b817]
link CpuIdFactory to CpuIdFactory_CpuIdDeviceConfig--><g id="link_CpuIdFactory_CpuIdFactory_CpuIdDeviceConfig"><path codeLine="48" d="M626.34,245.08 C667.06,263.83 714.1,285.49 756.36,304.95 " fill="none" id="CpuIdFactory-CpuIdFactory_CpuIdDeviceConfig" style="stroke:#181818;stroke-width:1.0;"/></g><!--MD5=[9af4a5c63ea45e95dbf6a564b02d880a]
link CpuIdFactory_CpuIdDeviceConfig to CpuIdDeviceConfig--><g id="link_CpuIdFactory_CpuIdDeviceConfig_CpuIdDeviceConfig"><path codeLine="49" d="M852.62,418.3 C843.79,438.52 834.14,460.62 826.57,477.94 " fill="none" id="CpuIdFactory_CpuIdDeviceConfig-CpuIdDeviceConfig" style="stroke:#181818;stroke-width:1.0;"/></g><!--MD5=[c723ae9e5e6932135c4531fc583932c0]
link CpuIdDefaultConfig to ICpuIdConfig--><g id="link_CpuIdDefaultConfig_ICpuIdConfig"><path codeLine="53" d="M302.85,534.07 C344.85,551.41 402.79,575.35 448.7,594.31 " fill="none" id="CpuIdDefaultConfig-to-ICpuIdConfig" style="stroke:#181818;stroke-width:1.0;stroke-dasharray:7.0,7.0;"/><polygon fill="none" points="451.42,587.86,467.23,601.96,446.07,600.8,451.42,587.86" style="stroke:#181818;stroke-width:1.0;"/></g><!--MD5=[015e10fe12fe119c71d807a629c670f9]
link CpuIdNativeConfig to ICpuIdConfig--><g id="link_CpuIdNativeConfig_ICpuIdConfig"><path codeLine="54" d="M523,534.07 C523,547.74 523,565.52 523,581.72 " fill="none" id="CpuIdNativeConfig-to-ICpuIdConfig" style="stroke:#181818;stroke-width:1.0;stroke-dasharray:7.0,7.0;"/><polygon fill="none" points="530,581.96,523,601.96,516,581.96,530,581.96" style="stroke:#181818;stroke-width:1.0;"/></g><!--MD5=[9e867be6cc206c6bebe69cb349741606]
link CpuIdDeviceConfig to ICpuIdConfig--><g id="link_CpuIdDeviceConfig_ICpuIdConfig"><path codeLine="55" d="M734.14,542 C692.58,558.34 641.8,578.3 600.46,594.55 " fill="none" id="CpuIdDeviceConfig-to-ICpuIdConfig" style="stroke:#181818;stroke-width:1.0;stroke-dasharray:7.0,7.0;"/><polygon fill="none" points="602.77,601.16,581.6,601.96,597.65,588.13,602.77,601.16" style="stroke:#181818;stroke-width:1.0;"/></g><!--MD5=[06299d6f075b3d1583e0b6869b572217]
@startuml CpuIdFactory_T

abstract class ICpuIdFactory {
    +{abstract} create(cpunum: int) : unique_ptr<ICpuId>
    +~ICpuIdFactory() = default
}

class CpuIdFactory<T> {
    +CpuIdFactory()
    +CpuIdFactory(config: T&);
    +create(cpunum: int) : unique_ptr<ICpuId>
}

ICpuIdFactory <|.d. CpuIdFactory

class CpuIdDefaultConfig { }

class "CpuIdFactory<CpuIdDefaultConfig>" as CpuIdFactory_CpuIdDefaultConfig {
    +CpuIdFactory()
    +CpuIdFactory(config: CpuIdDefaultConfig&)
    +create(cpunum: int) : unique_ptr<ICpuId>
}

class CpuIdNativeConfig { }

class "CpuIdFactory<CpuIdNativeConfig>" as CpuIdFactory_CpuIdNativeConfig {
    +CpuIdFactory()
    +CpuIdFactory(config: CpuIdNativeConfig&)
    +create(cpunum: int) : unique_ptr<ICpuId>
}

class CpuIdDeviceConfig {
    method: DeviceAccessMethod
}

class "CpuIdFactory<CpuIdDeviceConfig>" as CpuIdFactory_CpuIdDeviceConfig {
    +CpuIdFactory()
    +CpuIdFactory(config: CpuIdDeviceConfig&)
    +create(cpunum: int) : unique_ptr<ICpuId>
    -m_method: DeviceAccessMethod
}

CpuIdFactory -d- CpuIdFactory_CpuIdDefaultConfig
CpuIdFactory_CpuIdDefaultConfig -d- CpuIdDefaultConfig

CpuIdFactory -d- CpuIdFactory_CpuIdNativeConfig
CpuIdFactory_CpuIdNativeConfig -d- CpuIdNativeConfig

CpuIdFactory -d- CpuIdFactory_CpuIdDeviceConfig
CpuIdFactory_CpuIdDeviceConfig -d- CpuIdDeviceConfig

class ICpuIdConfig { }

CpuIdDefaultConfig .d.|> ICpuIdConfig
CpuIdNativeConfig .d.|> ICpuIdConfig
CpuIdDeviceConfig .d.|> ICpuIdConfig
@enduml

PlantUML version 1.2022.7(Mon Aug 22 19:01:30 CEST 2022)
(GPL source distribution)
Java Runtime: OpenJDK Runtime Environment
JVM: OpenJDK 64-Bit Server VM
Default Encoding: UTF-8
Language: en
Country: US
--></g></svg>