<?xml version="1.0" encoding="UTF-8" standalone="no"?><svg xmlns="http://www.w3.org/2000/svg" xmlns:xlink="http://www.w3.org/1999/xlink" contentStyleType="text/css" height="562px" preserveAspectRatio="none" style="width:1090px;height:562px;background:#FFFFFF;" version="1.1" viewBox="0 0 1090 562" width="1090px" zoomAndPan="magnify"><defs/><g><!--class ICpuIdFactory--><g id="elem_ICpuIdFactory"><rect codeLine="2" fill="#F1F1F1" height="80.5938" id="ICpuIdFactory" rx="2.5" ry="2.5" style="stroke:#181818;stroke-width:0.5;" width="319" x="764" y="342"/><ellipse cx="871.25" cy="358" fill="#A9DCDF" rx="11" ry="11" style="stroke:#181818;stroke-width:1.0;"/><path d="M871.3594,353.3438 L870.2031,358.4219 L872.5313,358.4219 L871.3594,353.3438 Z M869.875,351.1094 L872.8594,351.1094 L876.2188,363.5 L873.7656,363.5 L873,360.4375 L869.7188,360.4375 L868.9688,363.5 L866.5313,363.5 L869.875,351.1094 Z " fill="#000000"/><text fill="#000000" font-family="sans-serif" font-size="14" font-style="italic" lengthAdjust="spacing" textLength="96" x="891.75" y="362.8467">ICpuIdFactory</text><line style="stroke:#181818;stroke-width:0.5;" x1="765" x2="1082" y1="374" y2="374"/><line style="stroke:#181818;stroke-width:0.5;" x1="765" x2="1082" y1="382" y2="382"/><ellipse cx="775" cy="395.6484" fill="#84BE84" rx="3" ry="3" style="stroke:#038048;stroke-width:1.0;"/><text fill="#000000" font-family="sans-serif" font-size="14" font-style="italic" lengthAdjust="spacing" textLength="293" x="784" y="398.9951">create(cpunum: int) : unique_ptr&lt;ICpuId&gt;</text><ellipse cx="775" cy="411.9453" fill="#84BE84" rx="3" ry="3" style="stroke:#038048;stroke-width:1.0;"/><text fill="#000000" font-family="sans-serif" font-size="14" lengthAdjust="spacing" textLength="182" x="784" y="415.292">~ICpuIdFactory() = default</text></g><!--class Global--><g id="elem_Global"><rect codeLine="7" fill="#F1F1F1" height="88.8594" id="Global" rx="2.5" ry="2.5" style="stroke:#181818;stroke-width:0.5;" width="331" x="297" y="10"/><ellipse cx="414.25" cy="30.1328" fill="#FF7700" rx="11" ry="11" style="stroke:#181818;stroke-width:1.0;"/><path d="M415.4844,33.8984 L415.4844,31.5234 L413.8125,31.5234 L413.8125,29.4609 L417.625,29.4609 L417.625,35.1484 Q416.9219,35.7578 416.0625,36.0703 Q415.2188,36.3672 414.25,36.3672 Q411.8438,36.3672 410.5313,34.6953 Q409.2188,33.0234 409.2188,29.9453 Q409.2188,26.8203 410.5469,25.1641 Q411.875,23.5078 414.375,23.5078 Q415.1094,23.5078 415.8281,23.7266 Q416.5625,23.9453 417.1875,24.3359 L417.1875,27.0547 Q416.6719,26.3828 416,26.0547 Q415.3438,25.7109 414.5469,25.7109 Q413.1406,25.7109 412.4531,26.7734 Q411.7656,27.8203 411.7656,29.9453 Q411.7656,32.0078 412.4219,33.1016 Q413.0938,34.1797 414.375,34.1797 Q414.75,34.1797 415.0313,34.1172 Q415.3125,34.0391 415.4844,33.8984 Z " fill="#000000"/><text fill="#000000" font-family="sans-serif" font-size="12" font-style="italic" lengthAdjust="spacing" textLength="81" x="432.75" y="26.1387">«global free»</text><text fill="#000000" font-family="sans-serif" font-size="14" lengthAdjust="spacing" textLength="4" x="471.25" y="41.9639"> </text><rect fill="#FFFFFF" height="15.9688" style="stroke:#181818;stroke-width:1.0;stroke-dasharray:2.0,2.0;" width="9" x="622" y="7"/><text fill="#000000" font-family="sans-serif" font-size="12" font-style="italic" lengthAdjust="spacing" textLength="7" x="623" y="19.1387">T</text><line style="stroke:#181818;stroke-width:0.5;" x1="298" x2="627" y1="50.2656" y2="50.2656"/><line style="stroke:#181818;stroke-width:0.5;" x1="298" x2="627" y1="58.2656" y2="58.2656"/><ellipse cx="308" cy="80.0625" fill="#84BE84" rx="3" ry="3" style="stroke:#038048;stroke-width:1.0;"/><text fill="#000000" font-family="sans-serif" font-size="14" lengthAdjust="spacing" textLength="305" x="317" y="75.2607">CreateCpuIdFactory(config: const Config&amp;) :</text><text fill="#000000" font-family="sans-serif" font-size="14" lengthAdjust="spacing" textLength="223" x="333" y="91.5576">std::unique_ptr&lt;ICpuIdFactory&gt;</text></g><!--class GlobalDefault--><g id="elem_GlobalDefault"><rect codeLine="11" fill="#F1F1F1" height="88.8594" id="GlobalDefault" rx="2.5" ry="2.5" style="stroke:#181818;stroke-width:0.5;" width="444" x="478.5" y="176"/><ellipse cx="581.25" cy="196.1328" fill="#FF7700" rx="11" ry="11" style="stroke:#181818;stroke-width:1.0;"/><path d="M582.4844,199.8984 L582.4844,197.5234 L580.8125,197.5234 L580.8125,195.4609 L584.625,195.4609 L584.625,201.1484 Q583.9219,201.7578 583.0625,202.0703 Q582.2188,202.3672 581.25,202.3672 Q578.8438,202.3672 577.5313,200.6953 Q576.2188,199.0234 576.2188,195.9453 Q576.2188,192.8203 577.5469,191.1641 Q578.875,189.5078 581.375,189.5078 Q582.1094,189.5078 582.8281,189.7266 Q583.5625,189.9453 584.1875,190.3359 L584.1875,193.0547 Q583.6719,192.3828 583,192.0547 Q582.3438,191.7109 581.5469,191.7109 Q580.1406,191.7109 579.4531,192.7734 Q578.7656,193.8203 578.7656,195.9453 Q578.7656,198.0078 579.4219,199.1016 Q580.0938,200.1797 581.375,200.1797 Q581.75,200.1797 582.0313,200.1172 Q582.3125,200.0391 582.4844,199.8984 Z " fill="#000000"/><text fill="#000000" font-family="sans-serif" font-size="12" font-style="italic" lengthAdjust="spacing" textLength="81" x="599.75" y="192.1387">«global free»</text><text fill="#000000" font-family="sans-serif" font-size="14" lengthAdjust="spacing" textLength="4" x="638.25" y="207.9639"> </text><rect fill="#FFFFFF" height="15.9688" style="stroke:#181818;stroke-width:1.0;stroke-dasharray:2.0,2.0;" width="151" x="774.5" y="173"/><text fill="#000000" font-family="sans-serif" font-size="12" font-style="italic" lengthAdjust="spacing" textLength="149" x="775.5" y="185.1387">T as CpuIdDefaultConfig</text><line style="stroke:#181818;stroke-width:0.5;" x1="479.5" x2="921.5" y1="216.2656" y2="216.2656"/><line style="stroke:#181818;stroke-width:0.5;" x1="479.5" x2="921.5" y1="224.2656" y2="224.2656"/><ellipse cx="489.5" cy="246.0625" fill="#84BE84" rx="3" ry="3" style="stroke:#038048;stroke-width:1.0;"/><text fill="#000000" font-family="sans-serif" font-size="14" lengthAdjust="spacing" textLength="418" x="498.5" y="241.2607">CreateCpuIdFactory&lt;&gt;(config: const CpuIdDefaultConfig&amp;) :</text><text fill="#000000" font-family="sans-serif" font-size="14" lengthAdjust="spacing" textLength="223" x="514.5" y="257.5576">std::unique_ptr&lt;ICpuIdFactory&gt;</text></g><!--class GlobalNative--><g id="elem_GlobalNative"><rect codeLine="15" fill="#F1F1F1" height="88.8594" id="GlobalNative" rx="2.5" ry="2.5" style="stroke:#181818;stroke-width:0.5;" width="437" x="7" y="176"/><ellipse cx="109.25" cy="196.1328" fill="#FF7700" rx="11" ry="11" style="stroke:#181818;stroke-width:1.0;"/><path d="M110.4844,199.8984 L110.4844,197.5234 L108.8125,197.5234 L108.8125,195.4609 L112.625,195.4609 L112.625,201.1484 Q111.9219,201.7578 111.0625,202.0703 Q110.2188,202.3672 109.25,202.3672 Q106.8438,202.3672 105.5313,200.6953 Q104.2188,199.0234 104.2188,195.9453 Q104.2188,192.8203 105.5469,191.1641 Q106.875,189.5078 109.375,189.5078 Q110.1094,189.5078 110.8281,189.7266 Q111.5625,189.9453 112.1875,190.3359 L112.1875,193.0547 Q111.6719,192.3828 111,192.0547 Q110.3438,191.7109 109.5469,191.7109 Q108.1406,191.7109 107.4531,192.7734 Q106.7656,193.8203 106.7656,195.9453 Q106.7656,198.0078 107.4219,199.1016 Q108.0938,200.1797 109.375,200.1797 Q109.75,200.1797 110.0313,200.1172 Q110.3125,200.0391 110.4844,199.8984 Z " fill="#000000"/><text fill="#000000" font-family="sans-serif" font-size="12" font-style="italic" lengthAdjust="spacing" textLength="81" x="127.75" y="192.1387">«global free»</text><text fill="#000000" font-family="sans-serif" font-size="14" lengthAdjust="spacing" textLength="4" x="166.25" y="207.9639"> </text><rect fill="#FFFFFF" height="15.9688" style="stroke:#181818;stroke-width:1.0;stroke-dasharray:2.0,2.0;" width="145" x="302" y="173"/><text fill="#000000" font-family="sans-serif" font-size="12" font-style="italic" lengthAdjust="spacing" textLength="143" x="303" y="185.1387">T as CpuIdNativeConfig</text><line style="stroke:#181818;stroke-width:0.5;" x1="8" x2="443" y1="216.2656" y2="216.2656"/><line style="stroke:#181818;stroke-width:0.5;" x1="8" x2="443" y1="224.2656" y2="224.2656"/><ellipse cx="18" cy="246.0625" fill="#84BE84" rx="3" ry="3" style="stroke:#038048;stroke-width:1.0;"/><text fill="#000000" font-family="sans-serif" font-size="14" lengthAdjust="spacing" textLength="411" x="27" y="241.2607">CreateCpuIdFactory&lt;&gt;(config: const CpuIdNativeConfig&amp;) :</text><text fill="#000000" font-family="sans-serif" font-size="14" lengthAdjust="spacing" textLength="223" x="43" y="257.5576">std::unique_ptr&lt;ICpuIdFactory&gt;</text></g><!--class CpuIdFactoryWithCallback--><g id="elem_CpuIdFactoryWithCallback"><rect codeLine="19" fill="#F1F1F1" height="80.5938" id="CpuIdFactoryWithCallback" rx="2.5" ry="2.5" style="stroke:#181818;stroke-width:0.5;" width="404" x="324.5" y="342"/><ellipse cx="379.25" cy="358" fill="#ADD1B2" rx="11" ry="11" style="stroke:#181818;stroke-width:1.0;"/><path d="M382.2188,363.6406 Q381.6406,363.9375 381,364.0781 Q380.3594,364.2344 379.6563,364.2344 Q377.1563,364.2344 375.8281,362.5938 Q374.5156,360.9375 374.5156,357.8125 Q374.5156,354.6875 375.8281,353.0313 Q377.1563,351.375 379.6563,351.375 Q380.3594,351.375 381,351.5313 Q381.6563,351.6875 382.2188,351.9844 L382.2188,354.7031 Q381.5938,354.125 381,353.8594 Q380.4063,353.5781 379.7813,353.5781 Q378.4375,353.5781 377.75,354.6563 Q377.0625,355.7188 377.0625,357.8125 Q377.0625,359.9063 377.75,360.9844 Q378.4375,362.0469 379.7813,362.0469 Q380.4063,362.0469 381,361.7813 Q381.5938,361.5 382.2188,360.9219 L382.2188,363.6406 Z " fill="#000000"/><text fill="#000000" font-family="sans-serif" font-size="14" lengthAdjust="spacing" textLength="177" x="399.75" y="362.8467">CpuIdFactoryWithCallback</text><rect fill="#FFFFFF" height="15.9688" style="stroke:#181818;stroke-width:1.0;stroke-dasharray:2.0,2.0;" width="107" x="624.5" y="339"/><text fill="#000000" font-family="sans-serif" font-size="12" font-style="italic" lengthAdjust="spacing" textLength="105" x="625.5" y="351.1387">CreationCallback</text><line style="stroke:#181818;stroke-width:0.5;" x1="325.5" x2="727.5" y1="374" y2="374"/><line style="stroke:#181818;stroke-width:0.5;" x1="325.5" x2="727.5" y1="382" y2="382"/><ellipse cx="335.5" cy="395.6484" fill="#84BE84" rx="3" ry="3" style="stroke:#038048;stroke-width:1.0;"/><text fill="#000000" font-family="sans-serif" font-size="14" lengthAdjust="spacing" textLength="378" x="344.5" y="398.9951">CpuIdFactoryWithCallback(callback: CreationCallback&amp;)</text><ellipse cx="335.5" cy="411.9453" fill="#84BE84" rx="3" ry="3" style="stroke:#038048;stroke-width:1.0;"/><text fill="#000000" font-family="sans-serif" font-size="14" lengthAdjust="spacing" textLength="291" x="344.5" y="415.292">create(cpunum: int) : unique_ptr&lt;ICpuId&gt;</text></g><g id="elem_GMN7"><path d="M414.5,500 L414.5,555.3984 A0,0 0 0 0 414.5,555.3984 L638.5,555.3984 A0,0 0 0 0 638.5,555.3984 L638.5,510 L628.5,500 L530.5,500 L526.5,423.33 L522.5,500 L414.5,500 A0,0 0 0 0 414.5,500 " fill="#FEFFDD" style="stroke:#181818;stroke-width:0.5;"/><path d="M628.5,500 L628.5,510 L638.5,510 L628.5,500 " fill="#FEFFDD" style="stroke:#181818;stroke-width:0.5;"/><text fill="#000000" font-family="sans-serif" font-size="13" lengthAdjust="spacing" textLength="203" x="420.5" y="517.0669">The `create` method then uses</text><text fill="#000000" font-family="sans-serif" font-size="13" lengthAdjust="spacing" textLength="190" x="420.5" y="532.1997">the callback to instantiate the</text><text fill="#000000" font-family="sans-serif" font-size="13" lengthAdjust="spacing" textLength="100" x="420.5" y="547.3325">`ICpuId` object.</text></g><!--class ICpuId--><g id="elem_ICpuId"><rect codeLine="29" fill="#F1F1F1" height="48" id="ICpuId" rx="2.5" ry="2.5" style="stroke:#181818;stroke-width:0.5;" width="75" x="106" y="503.5"/><ellipse cx="121" cy="519.5" fill="#ADD1B2" rx="11" ry="11" style="stroke:#181818;stroke-width:1.0;"/><path d="M123.9688,525.1406 Q123.3906,525.4375 122.75,525.5781 Q122.1094,525.7344 121.4063,525.7344 Q118.9063,525.7344 117.5781,524.0938 Q116.2656,522.4375 116.2656,519.3125 Q116.2656,516.1875 117.5781,514.5313 Q118.9063,512.875 121.4063,512.875 Q122.1094,512.875 122.75,513.0313 Q123.4063,513.1875 123.9688,513.4844 L123.9688,516.2031 Q123.3438,515.625 122.75,515.3594 Q122.1563,515.0781 121.5313,515.0781 Q120.1875,515.0781 119.5,516.1563 Q118.8125,517.2188 118.8125,519.3125 Q118.8125,521.4063 119.5,522.4844 Q120.1875,523.5469 121.5313,523.5469 Q122.1563,523.5469 122.75,523.2813 Q123.3438,523 123.9688,522.4219 L123.9688,525.1406 Z " fill="#000000"/><text fill="#000000" font-family="sans-serif" font-size="14" lengthAdjust="spacing" textLength="43" x="135" y="524.3467">ICpuId</text><line style="stroke:#181818;stroke-width:0.5;" x1="107" x2="180" y1="535.5" y2="535.5"/><line style="stroke:#181818;stroke-width:0.5;" x1="107" x2="180" y1="543.5" y2="543.5"/></g><!--class CpuIdNative--><g id="elem_CpuIdNative"><rect codeLine="31" fill="#F1F1F1" height="48" id="CpuIdNative" rx="2.5" ry="2.5" style="stroke:#181818;stroke-width:0.5;" width="114" x="216.5" y="503.5"/><ellipse cx="231.5" cy="519.5" fill="#ADD1B2" rx="11" ry="11" style="stroke:#181818;stroke-width:1.0;"/><path d="M234.4688,525.1406 Q233.8906,525.4375 233.25,525.5781 Q232.6094,525.7344 231.9063,525.7344 Q229.4063,525.7344 228.0781,524.0938 Q226.7656,522.4375 226.7656,519.3125 Q226.7656,516.1875 228.0781,514.5313 Q229.4063,512.875 231.9063,512.875 Q232.6094,512.875 233.25,513.0313 Q233.9063,513.1875 234.4688,513.4844 L234.4688,516.2031 Q233.8438,515.625 233.25,515.3594 Q232.6563,515.0781 232.0313,515.0781 Q230.6875,515.0781 230,516.1563 Q229.3125,517.2188 229.3125,519.3125 Q229.3125,521.4063 230,522.4844 Q230.6875,523.5469 232.0313,523.5469 Q232.6563,523.5469 233.25,523.2813 Q233.8438,523 234.4688,522.4219 L234.4688,525.1406 Z " fill="#000000"/><text fill="#000000" font-family="sans-serif" font-size="14" lengthAdjust="spacing" textLength="82" x="245.5" y="524.3467">CpuIdNative</text><line style="stroke:#181818;stroke-width:0.5;" x1="217.5" x2="329.5" y1="535.5" y2="535.5"/><line style="stroke:#181818;stroke-width:0.5;" x1="217.5" x2="329.5" y1="543.5" y2="543.5"/></g><!--reverse link ICpuId to CpuIdNative--><g id="link_ICpuId_CpuIdNative"><path codeLine="33" d="M201.26,527.5 C206.32,527.5 211.39,527.5 216.46,527.5 " fill="none" id="ICpuId-backto-CpuIdNative" style="stroke:#181818;stroke-width:1.0;stroke-dasharray:7.0,7.0;"/><polygon fill="none" points="201.08,534.5,181.08,527.5,201.08,520.5,201.08,534.5" style="stroke:#181818;stroke-width:1.0;"/></g><!--link CpuIdFactoryWithCallback to ICpuIdFactory--><g id="link_CpuIdFactoryWithCallback_ICpuIdFactory"><path codeLine="34" d="M728.88,382.5 C733.79,382.5 738.71,382.5 743.63,382.5 " fill="none" id="CpuIdFactoryWithCallback-to-ICpuIdFactory" style="stroke:#181818;stroke-width:1.0;stroke-dasharray:7.0,7.0;"/><polygon fill="none" points="743.85,375.5,763.85,382.5,743.85,389.5,743.85,375.5" style="stroke:#181818;stroke-width:1.0;"/></g><!--link Global to GlobalDefault--><g id="link_Global_GlobalDefault"><path codeLine="36" d="M525.65,99.02 C558.6,121.72 598.94,149.52 632.56,172.69 " fill="none" id="Global-to-GlobalDefault" style="stroke:#181818;stroke-width:1.0;"/><polygon fill="#181818" points="637.05,175.78,631.9195,167.373,632.9365,172.9377,627.3718,173.9546,637.05,175.78" style="stroke:#181818;stroke-width:1.0;"/><text fill="#000000" font-family="sans-serif" font-size="13" lengthAdjust="spacing" textLength="105" x="589.5" y="142.0669">«specialised by»</text></g><!--link Global to GlobalNative--><g id="link_Global_GlobalNative"><path codeLine="37" d="M399.61,99.02 C366.8,121.72 326.63,149.52 293.15,172.69 " fill="none" id="Global-to-GlobalNative" style="stroke:#181818;stroke-width:1.0;"/><polygon fill="#181818" points="288.68,175.78,298.3582,173.9546,292.7935,172.9377,293.8105,167.373,288.68,175.78" style="stroke:#181818;stroke-width:1.0;"/><text fill="#000000" font-family="sans-serif" font-size="13" lengthAdjust="spacing" textLength="105" x="352.5" y="142.0669">«specialised by»</text></g><!--link GlobalDefault to CpuIdFactoryWithCallback--><g id="link_GlobalDefault_CpuIdFactoryWithCallback"><path codeLine="38" d="M652.95,265.22 C628.22,287.97 598.08,315.68 573.43,338.34 " fill="none" id="GlobalDefault-to-CpuIdFactoryWithCallback" style="stroke:#181818;stroke-width:1.0;"/><polygon fill="#181818" points="569.53,341.94,578.864,338.7973,573.2122,338.5575,573.452,332.9057,569.53,341.94" style="stroke:#181818;stroke-width:1.0;"/><text fill="#000000" font-family="sans-serif" font-size="13" lengthAdjust="spacing" textLength="91" x="619.5" y="308.0669">«instantiates»</text></g><!--link GlobalNative to CpuIdFactoryWithCallback--><g id="link_GlobalNative_CpuIdFactoryWithCallback"><path codeLine="39" d="M307.35,265.01 C350.94,288.18 404.3,316.54 447.46,339.48 " fill="none" id="GlobalNative-to-CpuIdFactoryWithCallback" style="stroke:#181818;stroke-width:1.0;"/><polygon fill="#181818" points="452.13,341.97,446.0555,334.2175,447.7135,339.626,442.3051,341.2839,452.13,341.97" style="stroke:#181818;stroke-width:1.0;"/><text fill="#000000" font-family="sans-serif" font-size="13" lengthAdjust="spacing" textLength="91" x="395.5" y="308.0669">«instantiates»</text></g><!--link GlobalNative to CpuIdNative--><g id="link_GlobalNative_CpuIdNative"><path codeLine="41" d="M226.58,265.09 C228.21,306.14 232.29,369.19 242.5,423 C247.45,449.1 256.42,478.01 263.44,498.62 " fill="none" id="GlobalNative-to-CpuIdNative" style="stroke:#181818;stroke-width:1.0;stroke-dasharray:7.0,7.0;"/><polygon fill="#181818" points="265.08,503.41,265.9312,493.598,263.4518,498.6825,258.3673,496.2031,265.08,503.41" style="stroke:#181818;stroke-width:1.0;"/><text fill="#000000" font-family="sans-serif" font-size="13" lengthAdjust="spacing" textLength="62" x="243.5" y="387.0669">«returns»</text></g><!--link CpuIdFactoryWithCallback to CpuIdNative--><g id="link_CpuIdFactoryWithCallback_CpuIdNative"><path codeLine="42" d="M456.36,423.14 C412.52,447.93 357.32,479.12 319.1,500.73 " fill="none" id="CpuIdFactoryWithCallback-to-CpuIdNative" style="stroke:#181818;stroke-width:1.0;"/><polygon fill="#181818" points="314.52,503.31,324.3219,502.3489,318.8691,500.8431,320.3749,495.3904,314.52,503.31" style="stroke:#181818;stroke-width:1.0;"/><text fill="#000000" font-family="sans-serif" font-size="13" lengthAdjust="spacing" textLength="91" x="401.5" y="466.0669">«instantiates»</text></g><!--SRC=[jP9VIyCm5CNVyoak2hAX3j-44lCocVZYqy0NmQNfdOjsoMnk1PdpivichMkd5VzW-z3avFxEFRr4feuAgGXKBfs3o_6glCmcNh35CwmP-ETmBUkY3QW29U50hKfJBXFGXeQGG6dqOuctAofuD10HVEtO3OPm1XdEPPaJsp0ME-xvLpguo6qgSpuLmFdWucX_CZazFJaPmbtGOLuW2j446eSK7MzbpLpV9U2_Zc0STWS-susf24TPadn8MREY9ynvZCgdbHI0MedklqpAnMxM3yv_p7qbIJzXAtOK_Y5rs_ZdeTlojQR5MEPvAjK33-srDOsmpTL335IzI62NFHX6zDiNTyEC9OJK4jbbOASBX5daPx14MjWCQ846IeSkLFWTD160h7Tt90rfJrHdeMOM6yp0flUeQCJGP52rQiOHps4DtG756KUvBOpoqOke8TOt61WLswhwdB5uJU0uEnRTg-udmhbReT8ormupI9-5-AIyZl15TMCOeDvqbK5hLkuThnlycExY_kT5PuWLKI2LXQcAUustRLjSjzCR]--></g></svg>